<?xml version="1.0" standalone="no"?>
<!DOCTYPE svg PUBLIC "-//W3C//DTD SVG 20010904//EN"
 "http://www.w3.org/TR/2001/REC-SVG-20010904/DTD/svg10.dtd">
<svg version="1.0" xmlns="http://www.w3.org/2000/svg"
 width="640.000000pt" height="640.000000pt" viewBox="0 0 640.000000 640.000000"
 preserveAspectRatio="xMidYMid meet">
<metadata>
Created by potrace 1.11, written by Peter Selinger 2001-2013
</metadata>
<g transform="translate(0.000000,640.000000) scale(0.100000,-0.100000)"
fill="#000000" stroke="none">
<path d="M2940 5855 c-7 -9 -10 -25 -6 -41 9 -35 -9 -56 -42 -47 -17 4 -23 2
-18 -6 4 -6 4 -11 1 -11 -3 0 -11 13 -16 29 -9 24 -17 30 -55 36 -90 13 -217
-7 -219 -35 0 -3 -5 -14 -11 -24 -10 -16 -16 -17 -42 -8 -18 6 -49 8 -69 5
-48 -7 -139 -58 -159 -88 -9 -13 -24 -25 -35 -27 -11 -2 -19 -7 -19 -13 1 -13
-155 -44 -184 -37 -11 2 -33 16 -48 30 -29 27 -35 24 -18 -8 12 -23 4 -27
-104 -40 -56 -7 -93 -7 -110 0 -14 5 -27 7 -27 5 -1 -3 -2 -11 -3 -17 0 -7 -8
-13 -17 -13 -9 0 -24 -8 -33 -18 -10 -9 -25 -17 -34 -17 -14 0 -15 2 -3 9 12
8 12 12 2 25 -19 23 -31 20 -31 -9 0 -33 -46 -74 -84 -75 -15 0 -46 10 -67 22
-46 26 -61 17 -29 -17 28 -30 35 -82 11 -89 -9 -3 -34 -1 -56 4 -26 6 -41 6
-43 -1 -2 -5 -16 -24 -30 -40 -22 -27 -30 -31 -64 -26 -42 6 -60 -10 -73 -64
-4 -15 -24 -41 -44 -57 -21 -17 -48 -52 -61 -79 l-23 -48 22 -37 c27 -47 26
-58 -1 -58 -32 0 -17 -9 20 -12 18 -1 32 -8 32 -14 0 -11 -60 -21 -144 -23
-17 -1 -34 -7 -38 -14 -12 -17 1 -77 23 -108 23 -33 24 -58 3 -66 -41 -15 -37
-113 6 -123 33 -8 36 -28 5 -36 -33 -8 -15 -24 28 -24 19 0 30 -6 33 -18 6
-20 48 -42 80 -42 32 0 37 -14 12 -36 -21 -19 -21 -19 -15 5 4 18 3 21 -5 13
-9 -9 -9 -24 -1 -59 15 -65 7 -101 -27 -118 -15 -8 -30 -12 -33 -9 -11 11 -87
-8 -87 -21 0 -7 5 -15 11 -17 9 -3 9 -14 -1 -42 -6 -21 -9 -54 -6 -74 17 -99
15 -113 -11 -123 -14 -5 -35 -7 -47 -3 -17 5 -19 4 -9 -6 17 -19 139 -21 154
-4 19 23 36 16 58 -21 37 -63 121 -96 151 -60 10 12 10 19 2 27 -7 7 -13 21
-13 32 -1 17 -2 18 -6 4 -4 -16 -33 -26 -33 -12 0 15 22 44 34 44 7 0 21 9 31
20 23 26 27 25 47 -7 l17 -28 1 25 c0 28 27 109 41 126 13 16 48 24 54 14 3
-5 -2 -15 -11 -24 -9 -10 -14 -28 -12 -48 l3 -33 21 33 21 33 10 -52 c7 -32 7
-64 2 -83 -12 -39 -14 -114 -5 -147 6 -18 5 -20 -3 -9 -9 13 -11 13 -11 -2 0
-10 6 -18 13 -18 6 0 4 -5 -6 -11 -9 -6 -15 -14 -12 -20 4 -5 0 -9 -8 -9 -17
0 -29 -57 -13 -64 6 -2 5 -5 -3 -5 -11 -1 -11 -4 0 -18 8 -9 9 -14 3 -10 -17
10 -24 -42 -13 -92 15 -68 47 -120 92 -152 24 -17 51 -45 61 -64 28 -51 92
-79 160 -71 50 7 54 6 59 -16 4 -13 22 -42 42 -65 l35 -41 -15 -42 c-17 -49
-19 -98 -5 -134 12 -32 65 -66 102 -66 32 0 98 28 115 50 11 13 14 13 22 1 5
-8 7 -21 3 -29 -3 -10 -1 -13 6 -8 16 9 34 -29 31 -67 -3 -35 34 -117 53 -117
6 0 8 -3 5 -7 -4 -3 3 -16 16 -27 30 -29 77 -92 77 -105 0 -6 -6 -8 -12 -6
-15 6 -18 -42 -4 -64 7 -11 5 -13 -7 -8 -21 8 -33 -11 -18 -26 9 -9 11 -7 5 8
-6 16 -4 18 6 8 11 -10 10 -17 -4 -37 -9 -14 -21 -25 -27 -23 -7 1 -14 -5 -16
-13 -4 -13 -3 -13 6 0 6 8 11 11 11 7 0 -5 -8 -21 -19 -35 -95 -135 -188 -446
-271 -907 -12 -66 -31 -156 -41 -200 -11 -44 -28 -138 -39 -210 -11 -71 -22
-141 -25 -155 -3 -14 -8 -44 -11 -66 -2 -23 -6 -51 -9 -62 -2 -11 -7 -42 -11
-69 -3 -26 -8 -56 -10 -66 -14 -77 -26 -287 -22 -384 5 -110 31 -242 59 -295
15 -28 112 -19 167 15 51 33 54 41 6 21 -20 -8 -41 -13 -47 -11 -7 2 -23 -4
-36 -14 -52 -41 -56 -29 -52 151 2 60 41 279 66 363 3 9 7 27 10 40 2 12 18
83 34 157 28 128 54 262 66 340 9 64 36 175 46 194 8 13 7 16 -1 11 -8 -5 -10
-2 -6 11 3 11 8 39 11 64 3 24 10 61 15 81 6 20 12 49 14 65 2 16 9 58 14 94
6 36 16 103 22 150 5 47 12 96 15 110 3 14 8 84 10 155 10 261 13 281 45 359
27 64 70 126 70 101 0 -5 7 0 15 11 15 20 20 12 16 -28 -3 -20 15 -24 22 -5 2
6 8 8 13 4 5 -5 -1 -17 -13 -27 -13 -10 -23 -21 -23 -24 0 -3 -9 -15 -20 -26
-11 -11 -20 -26 -19 -32 0 -7 7 -3 16 9 8 13 20 23 26 23 5 0 16 8 23 18 12
15 12 14 7 -8 -4 -18 -3 -22 6 -14 6 5 17 33 23 62 14 58 25 66 34 25 10 -48
12 -49 13 -10 1 20 5 37 10 37 12 0 25 -39 17 -47 -3 -4 -1 -12 4 -19 6 -6 10
-16 9 -20 -5 -31 2 -94 11 -89 10 6 7 73 -5 110 -6 19 -6 19 5 2 15 -24 26
-142 12 -133 -13 8 -22 -28 -11 -45 7 -11 9 -10 9 3 0 9 5 20 10 23 14 9 7
-32 -8 -47 -7 -7 -12 -23 -11 -38 1 -25 1 -25 14 5 l14 30 1 -37 c0 -29 -3
-36 -15 -32 -10 4 -15 0 -15 -14 0 -23 20 -41 21 -20 0 7 4 4 8 -7 5 -13 3
-24 -7 -31 -11 -8 -12 -15 -4 -30 11 -18 11 -17 13 6 1 14 9 -6 19 -45 10 -38
16 -81 13 -95 -3 -17 -2 -21 5 -12 7 10 12 6 21 -17 7 -16 10 -35 5 -42 -4 -7
-3 -10 4 -5 6 4 28 -28 54 -79 50 -99 65 -98 18 0 -18 37 -29 69 -26 72 3 3
-1 18 -9 33 -26 51 -48 212 -36 273 4 25 6 58 3 76 -2 19 0 31 7 31 6 0 11 -5
11 -11 0 -8 5 -8 15 1 12 10 15 10 15 -2 0 -15 17 -38 73 -99 15 -16 27 -35
27 -41 0 -9 3 -9 11 -1 8 8 6 19 -7 42 -10 17 -23 31 -29 31 -5 0 -21 17 -35
37 -14 21 -32 45 -41 54 -36 37 -145 216 -136 225 9 10 38 -10 33 -22 -3 -8 1
-14 9 -14 8 0 15 -6 15 -14 0 -8 3 -16 8 -18 4 -1 27 -30 52 -63 25 -33 53
-66 63 -73 9 -7 17 -19 17 -27 0 -8 5 -17 10 -20 22 -14 8 28 -20 58 -56 61
-90 100 -90 104 0 2 13 -4 29 -13 17 -10 29 -20 29 -23 -2 -12 15 -41 24 -41
5 0 28 -21 51 -46 23 -26 51 -54 61 -63 19 -16 27 -25 66 -71 l21 -25 -17 30
c-10 17 -28 40 -41 53 -13 13 -23 28 -23 35 1 7 5 6 13 -4 7 -8 24 -24 40 -33
15 -10 27 -24 27 -30 0 -7 12 -19 26 -26 14 -8 33 -27 42 -42 9 -15 20 -28 25
-28 6 0 18 -10 28 -22 15 -16 19 -18 19 -5 0 9 -12 25 -27 35 -16 11 -36 35
-46 54 l-18 33 33 -36 c39 -43 102 -80 83 -49 -3 6 1 10 9 10 8 0 25 10 38 22
41 41 95 77 103 70 4 -4 5 1 3 10 -2 10 27 48 72 97 41 44 99 110 128 146 29
36 58 65 63 65 6 0 7 -4 4 -10 -3 -5 -1 -10 6 -10 6 0 9 8 6 20 -3 11 -1 17 4
14 10 -6 69 51 69 66 0 4 6 10 14 13 8 3 20 16 27 29 11 21 11 22 -4 9 -10 -7
-17 -9 -17 -3 0 17 27 33 46 25 17 -6 18 -5 4 12 -13 17 -13 18 1 13 11 -4 27
4 45 23 15 16 22 29 16 29 -7 0 -12 -4 -12 -10 0 -5 -5 -10 -12 -10 -6 0 -3 9
7 20 10 12 24 19 31 16 6 -2 25 9 40 25 23 24 25 29 9 23 -22 -8 -22 -8 47 71
14 16 36 41 47 54 12 14 27 21 36 17 8 -3 15 -1 15 4 0 6 -5 10 -11 10 -7 0 1
10 17 22 16 13 43 39 61 58 17 20 40 36 50 36 10 0 33 4 51 8 41 10 42 -7 1
-24 -20 -9 -26 -16 -18 -20 8 -6 2 -17 -20 -39 -17 -17 -36 -31 -41 -31 -6 0
-10 -7 -10 -15 0 -8 -7 -15 -15 -15 -8 0 -15 -4 -15 -9 0 -4 -16 -25 -35 -45
-19 -21 -35 -40 -35 -43 0 -7 -113 -113 -122 -113 -4 0 -5 -7 -2 -15 4 -9 0
-15 -10 -15 -9 0 -16 -8 -16 -20 0 -32 -1 -34 -17 -52 -13 -15 -13 -18 -2 -18
8 1 25 14 39 30 13 17 30 30 37 30 7 0 13 7 13 15 0 8 6 15 14 15 8 0 16 7 20
15 3 8 9 14 13 13 4 -1 24 12 43 30 19 18 48 43 63 55 16 12 46 39 68 60 21
20 44 37 49 37 6 0 10 -15 11 -32 0 -28 2 -30 9 -13 8 19 9 19 9 -2 1 -12 -2
-29 -6 -39 -6 -16 -7 -16 -14 2 -7 17 -8 17 -8 -4 -1 -13 -10 -36 -22 -50
l-21 -27 6 30 6 30 -11 -27 c-6 -16 -14 -28 -19 -28 -5 0 -12 -10 -16 -22 -7
-22 -7 -22 -15 -3 -6 16 -8 17 -8 3 -1 -10 -14 -32 -30 -50 -15 -18 -31 -40
-34 -48 -4 -10 -6 -11 -6 -2 -1 7 6 27 14 45 l16 32 -21 -24 c-11 -13 -20 -29
-20 -35 0 -7 -13 -25 -30 -41 -26 -25 -43 -25 -22 1 4 5 -3 -1 -15 -13 -13
-12 -23 -26 -23 -31 0 -14 -49 -56 -57 -49 -3 4 -2 7 3 7 16 0 46 58 34 65 -5
3 -10 -1 -10 -9 0 -8 -11 -25 -24 -38 -14 -13 -26 -30 -28 -37 -4 -18 -96 -94
-106 -87 -4 2 -20 -13 -36 -35 -17 -21 -34 -39 -38 -39 -5 0 -21 -12 -36 -26
l-27 -25 34 3 c26 2 37 -2 48 -20 10 -14 11 -22 4 -22 -6 0 -11 -7 -11 -15 0
-9 6 -12 16 -8 12 4 14 14 9 40 -5 27 -2 38 11 48 26 18 45 8 38 -21 -4 -14
-2 -24 4 -24 9 0 210 231 292 334 13 17 50 58 81 91 31 33 70 75 85 92 32 37
48 43 39 13 -5 -14 -2 -20 10 -20 12 0 15 5 10 21 -5 14 -2 25 6 30 16 9 21
67 8 89 -6 11 -8 8 -9 -13 0 -16 -4 -26 -9 -23 -4 3 -7 18 -5 33 4 24 3 25 -5
8 -11 -24 -14 -3 -5 33 4 15 10 19 18 13 8 -6 11 0 12 22 1 17 6 33 13 35 6 2
11 10 11 18 0 9 5 12 10 9 6 -3 10 3 10 14 0 27 16 35 30 14 11 -17 11 -17 6
0 -3 9 -9 25 -13 35 -3 9 -2 14 2 10 5 -5 13 2 19 14 6 12 17 23 24 26 19 6
15 -53 -8 -100 -11 -23 -20 -44 -20 -47 0 -3 9 5 20 17 11 12 20 29 20 39 0
10 9 36 19 58 10 22 18 57 19 79 1 21 8 43 16 50 8 6 28 41 45 78 30 66 56 88
83 72 7 -5 75 -52 152 -106 76 -54 143 -98 149 -98 6 0 19 -7 29 -17 35 -31
28 -6 -7 29 -34 32 -54 81 -55 131 0 19 26 23 33 5 4 -10 7 -10 18 0 19 17 26
15 34 -10 4 -14 8 -18 12 -10 7 18 24 15 21 -4 -2 -10 2 -19 8 -21 10 -3 69
135 69 162 0 18 -46 13 -58 -6 -7 -11 -17 -19 -24 -19 -16 0 -16 6 -3 30 8 15
6 21 -9 30 -17 8 -22 6 -31 -11 -7 -12 -9 -31 -6 -43 5 -20 3 -19 -16 4 -21
24 -21 24 -15 2 3 -12 1 -20 -4 -16 -5 3 -9 12 -9 21 0 9 -10 45 -22 81 -24
71 -39 82 -114 82 -35 0 -44 3 -44 18 0 33 12 62 26 62 8 0 14 5 14 11 0 6 -8
8 -19 4 -18 -5 -25 4 -36 54 -2 7 -14 20 -26 29 -21 15 -21 16 -4 29 26 19 37
16 30 -7 -3 -11 -3 -25 0 -30 9 -15 48 37 51 69 1 14 6 36 9 49 6 18 3 22 -14
22 -15 0 -19 -4 -14 -17 6 -16 5 -16 -12 0 -15 16 -16 20 -4 27 57 36 70 60
31 60 -10 0 -23 9 -30 21 -11 18 -11 24 4 40 16 18 16 19 0 19 -9 0 -25 6 -36
13 -17 10 -27 9 -60 -9 -24 -14 -42 -18 -48 -12 -6 6 -27 2 -56 -12 -26 -11
-51 -18 -56 -15 -6 4 -13 -1 -16 -9 -3 -9 -13 -16 -21 -16 -9 0 -22 -8 -29
-17 -12 -16 -13 -16 -14 -1 0 19 -29 15 -70 -10 -40 -25 -50 -43 -50 -95 0
-44 -2 -48 -20 -42 -11 3 -20 2 -20 -3 0 -15 -29 -23 -56 -16 -13 3 -24 13
-24 21 0 13 -3 13 -15 3 -12 -10 -15 -10 -15 4 0 20 -16 21 -23 2 -8 -19 3
-57 22 -81 10 -13 10 -15 1 -7 -8 6 -22 12 -32 12 -10 0 -18 6 -18 13 0 22
-24 67 -37 67 -13 0 -53 117 -53 157 0 30 51 241 63 260 4 6 9 24 11 40 2 15
9 41 15 57 9 23 14 26 26 16 21 -17 77 -5 109 25 22 20 26 33 26 79 0 30 -5
67 -10 82 -10 24 -7 31 21 60 l32 33 -12 56 c-9 39 -21 64 -41 82 -47 41 -49
88 -3 57 23 -15 24 -15 14 4 -22 42 -68 35 -74 -12 -4 -28 -5 -29 -11 -9 -5
12 -14 24 -21 27 -25 9 6 -70 52 -130 12 -17 23 -36 23 -42 0 -18 -85 -25
-132 -11 -41 13 -43 16 -44 54 -1 22 -4 54 -9 71 -4 20 -3 34 4 38 6 4 11 19
11 34 0 22 -2 24 -11 12 -7 -11 -8 -5 -3 21 6 38 -16 99 -37 99 -6 0 -7 5 -4
10 3 6 23 11 43 11 l37 2 -35 6 c-19 4 -37 4 -40 0 -19 -23 -109 -15 -130 11
-3 3 -16 14 -30 24 -22 15 -23 17 -5 16 42 -4 50 1 25 15 -14 8 -33 14 -42 15
-10 0 -25 12 -33 28 -15 25 -16 25 -11 4 9 -47 -29 4 -42 55 -10 37 -21 54
-48 73 -20 13 -42 25 -49 26 -7 1 -21 7 -32 13 -17 10 -17 10 2 11 11 0 29 7
39 15 11 8 27 15 37 15 45 0 116 33 137 64 27 40 28 56 2 56 -18 0 -20 4 -14
41 5 30 3 43 -7 50 -23 14 -29 10 -29 -18 0 -16 -4 -44 -10 -63 -15 -55 -70
-78 -70 -30 0 10 -4 22 -10 25 -6 3 -10 -4 -10 -18 0 -19 -5 -24 -25 -24 -14
0 -25 3 -25 7 0 4 11 33 25 64 28 63 29 66 16 66 -5 0 -14 -13 -21 -30 -17
-40 -30 -38 -30 4 0 75 -43 136 -96 136 -24 0 -42 -10 -73 -41 -22 -23 -41
-36 -41 -30 0 34 -70 150 -91 151 -18 0 -49 -45 -49 -72 0 -27 -3 -30 -25 -26
-14 3 -28 1 -32 -5 -3 -6 -12 14 -20 43 -7 30 -20 61 -27 70 -16 19 -28 40
-23 40 2 0 27 -23 56 -50 29 -28 57 -48 62 -45 13 9 -2 34 -50 83 -43 44 -70
52 -91 27z m223 -100 c17 -17 33 -62 40 -117 6 -39 -4 -49 -50 -52 -18 -1 -23
4 -23 21 0 16 -4 21 -16 16 -13 -5 -15 0 -10 33 18 118 27 132 59 99z m-503
-9 c0 -3 -4 -8 -10 -11 -5 -3 -10 -1 -10 4 0 6 5 11 10 11 6 0 10 -2 10 -4z
m240 -41 c0 -13 -4 -27 -10 -30 -6 -4 -10 8 -10 30 0 22 4 34 10 30 6 -3 10
-17 10 -30z m47 -17 c-3 -8 -6 -5 -6 6 -1 11 2 17 5 13 3 -3 4 -12 1 -19z
m437 -20 c14 -19 27 -54 31 -83 l7 -50 -21 32 c-30 48 -64 67 -109 60 l-37 -6
42 39 c23 22 47 40 52 40 6 0 21 -15 35 -32z m-341 -16 c3 7 6 9 6 3 0 -5 -4
-17 -9 -25 -9 -13 -11 -13 -20 0 -14 22 -12 34 4 21 11 -9 15 -9 19 1z m72
-62 c3 -5 1 -10 -4 -10 -6 0 -11 5 -11 10 0 6 2 10 4 10 3 0 8 -4 11 -10z
m197 -61 c9 -19 15 -36 13 -38 -8 -7 -65 61 -59 70 10 17 28 4 46 -32z m-32
-21 c20 -22 28 -54 10 -43 -5 3 -10 12 -10 20 0 7 -9 17 -20 20 -11 3 -20 11
-20 16 0 16 18 10 40 -13z m-40 -18 c0 -5 -7 -7 -15 -4 -8 4 -15 8 -15 10 0 2
7 4 15 4 8 0 15 -4 15 -10z m-655 -65 c39 -15 84 -30 100 -34 89 -24 148 -67
184 -136 27 -52 48 -77 89 -104 17 -12 32 -27 32 -32 0 -13 66 -95 135 -168
l50 -53 -35 7 c-19 4 -76 20 -126 36 -98 31 -119 35 -109 19 3 -6 0 -12 -7
-15 -7 -2 -26 -9 -42 -15 l-29 -11 22 -15 c12 -9 20 -22 17 -29 -2 -7 2 -37
10 -67 16 -62 18 -98 4 -98 -11 0 -18 26 -24 91 -7 65 -24 97 -57 104 -16 4
-29 11 -29 16 0 5 -5 9 -10 9 -6 0 -21 11 -34 25 -25 27 -46 31 -63 14 -6 -6
-29 -13 -51 -14 -21 -2 -62 -15 -91 -31 -37 -19 -55 -24 -60 -16 -9 15 -80 -4
-88 -24 -3 -8 -16 -14 -29 -14 -15 0 -24 -6 -24 -16 0 -8 -4 -13 -9 -10 -16
10 -64 -65 -55 -87 3 -9 -3 -17 -18 -21 -19 -5 -20 -8 -8 -16 13 -8 12 -10 -2
-10 -10 0 -18 -3 -18 -7 1 -14 27 -43 39 -43 7 0 9 -4 6 -10 -3 -5 1 -10 11
-10 14 0 14 -3 3 -16 -11 -13 -9 -14 14 -9 27 7 39 -8 15 -18 -8 -3 -6 -6 5
-6 11 -1 17 6 17 19 0 11 -4 20 -10 20 -5 0 -10 16 -10 35 0 19 5 35 10 35 6
0 10 -10 10 -23 0 -13 16 -41 37 -63 20 -21 36 -43 35 -48 -4 -12 26 -56 38
-56 5 0 6 8 3 18 -6 15 -5 15 10 3 12 -9 17 -10 17 -2 0 9 5 9 21 1 11 -7 23
-9 26 -7 2 3 23 -3 46 -14 45 -20 167 -27 167 -9 0 6 11 10 24 10 13 0 29 7
36 15 7 8 19 15 27 15 8 0 23 23 35 50 24 57 38 64 38 18 0 -30 0 -31 20 -13
23 21 26 41 8 48 -7 3 -3 6 9 6 25 1 39 17 21 24 -21 7 62 28 137 34 59 5 65
8 40 14 -16 5 -48 6 -70 3 l-40 -5 34 16 c44 20 34 30 -16 16 -53 -15 -59 -14
-38 9 18 20 17 20 -11 21 -27 0 -28 1 -7 9 24 10 22 37 -4 53 -7 4 -13 14 -13
21 0 7 -12 18 -27 25 l-26 12 23 16 c21 15 30 13 134 -17 151 -44 180 -56 172
-75 -3 -8 -2 -15 3 -15 20 0 50 -40 61 -80 6 -25 23 -55 37 -67 15 -13 22 -23
17 -23 -5 0 -1 -5 9 -11 9 -6 15 -14 12 -19 -3 -5 6 -33 21 -61 20 -41 23 -53
12 -60 -7 -5 -8 -9 -3 -9 6 0 11 -12 11 -27 5 -85 12 -130 23 -150 10 -19 9
-23 -4 -23 -10 0 -16 -7 -14 -17 3 -34 -1 -43 -21 -43 -11 0 -20 -7 -20 -14 0
-12 -6 -13 -27 -6 -16 5 -40 11 -56 13 -15 2 -28 7 -29 13 0 5 -10 15 -21 23
-15 11 -24 11 -38 3 -26 -17 -72 -15 -119 4 -22 9 -55 17 -73 18 -25 1 -33 7
-35 23 -2 15 -8 20 -19 16 -11 -4 -14 -2 -9 5 7 11 -38 38 -56 34 -5 -1 -9 8
-10 21 -1 12 -2 29 -3 37 -2 25 -16 42 -31 36 -10 -4 -14 2 -14 19 0 31 -7 31
-37 3 -20 -18 -23 -19 -23 -5 0 20 -4 21 -31 7 -21 -12 -26 -40 -6 -40 20 0
-15 -20 -36 -20 -10 0 -15 5 -12 10 3 6 -2 10 -12 11 -13 1 -11 3 7 9 16 5 2
6 -35 3 -70 -7 -85 -13 -30 -13 21 0 35 -3 32 -7 -4 -3 -2 -12 4 -20 9 -11 1
-13 -45 -13 -42 0 -58 4 -63 16 -4 11 -8 12 -13 4 -5 -8 -21 -5 -56 12 -37 17
-49 28 -47 44 3 25 -91 122 -101 105 -4 -6 0 -11 10 -11 16 0 16 -1 1 -18 -10
-10 -17 -26 -17 -34 0 -22 87 -94 143 -118 25 -11 58 -34 74 -50 21 -22 37
-30 64 -30 36 0 51 -8 82 -46 18 -22 18 -22 -35 -47 -81 -38 -115 -45 -245
-46 -23 -1 -45 -6 -48 -12 -4 -6 0 -9 10 -7 10 2 20 -3 23 -11 3 -10 -2 -12
-21 -7 -19 4 -29 1 -40 -14 -14 -20 -14 -19 -37 2 -18 17 -26 19 -41 10 -15
-10 -19 -8 -25 11 -10 31 -11 157 -2 157 5 0 6 10 3 23 -2 12 -7 38 -9 58 -3
20 -9 47 -14 60 -4 13 -8 48 -8 76 1 29 -3 53 -9 53 -5 0 -3 5 5 10 8 5 10 10
5 10 -12 0 -57 -29 -67 -44 -4 -6 -8 -7 -8 -2 0 6 12 23 27 38 20 21 23 28 11
28 -9 0 -30 11 -45 24 -39 33 -128 39 -149 12 -7 -11 -20 -16 -29 -13 -18 7
-21 -9 -2 -17 6 -3 2 -3 -9 -1 -12 3 -34 0 -49 -7 -21 -9 -28 -9 -34 1 -5 7
-12 11 -17 10 -5 -2 -12 24 -17 56 -7 60 -5 71 30 138 8 15 10 27 5 27 -5 0
-7 14 -4 30 4 28 2 30 -19 25 -14 -3 -32 0 -44 9 -11 9 -14 16 -7 16 8 0 12
18 12 56 0 36 5 61 15 70 8 9 15 24 15 35 0 11 5 17 10 14 6 -3 10 1 10 9 0 9
4 16 10 16 5 0 24 17 42 37 84 94 187 191 228 215 43 25 168 71 220 82 59 11
186 -3 255 -29z m833 -26 c-27 -18 -38 -9 -38 29 l1 37 25 -29 c20 -23 23 -31
12 -37z m-1894 20 c-3 -5 -10 -7 -15 -3 -5 3 -7 10 -3 15 3 5 10 7 15 3 5 -3
7 -10 3 -15z m-209 -159 c-3 -5 -11 -10 -16 -10 -6 0 -7 5 -4 10 3 6 11 10 16
10 6 0 7 -4 4 -10z m-53 -206 c13 -48 -2 -64 -18 -19 -17 49 -17 58 -2 53 7
-3 16 -18 20 -34z m-39 -69 c-7 -21 -13 -19 -13 6 0 11 4 18 10 14 5 -3 7 -12
3 -20z m4 -67 c-3 -8 -6 -5 -6 6 -1 11 2 17 5 13 3 -3 4 -12 1 -19z m1658 2
c3 -6 -4 -10 -17 -10 -18 0 -20 2 -8 10 19 12 18 12 25 0z m-1676 -46 c-7 -9
-20 -12 -32 -8 -13 4 -17 2 -13 -5 9 -13 -13 -14 -34 -1 -12 7 -10 11 10 18
14 5 30 7 36 5 7 -2 15 1 19 6 3 6 11 9 16 5 6 -4 6 -11 -2 -20z m1219 -6 c-3
-7 -13 -15 -24 -17 -16 -3 -17 -1 -5 13 16 19 34 21 29 4z m372 -43 c0 -8 5
-15 12 -15 8 0 8 -4 -2 -14 -21 -18 -125 -7 -125 14 0 11 10 14 41 12 23 -2
45 1 49 7 9 16 25 13 25 -4z m-1630 -5 c0 -5 -7 -7 -15 -4 -8 4 -15 8 -15 10
0 2 7 4 15 4 8 0 15 -4 15 -10z m-60 -50 c0 -5 -2 -10 -4 -10 -3 0 -8 5 -11
10 -3 6 -1 10 4 10 6 0 11 -4 11 -10z m1240 0 c0 -5 -4 -10 -10 -10 -5 0 -10
5 -10 10 0 6 5 10 10 10 6 0 10 -4 10 -10z m402 -33 c-6 -7 -30 -14 -54 -16
-50 -3 -47 5 8 18 55 13 58 13 46 -2z m1258 -127 c0 -13 -11 -13 -30 0 -12 8
-11 10 8 10 12 0 22 -4 22 -10z m20 -59 c0 -13 -25 -20 -40 -11 -10 6 -8 9 6
13 31 8 34 7 34 -2z m-2023 -7 c-3 -3 -12 -4 -19 -1 -8 3 -5 6 6 6 11 1 17 -2
13 -5z m-77 -18 c0 -17 -44 -29 -73 -20 -20 6 -20 7 4 20 32 18 69 18 69 0z
m156 -11 c25 -19 38 -19 30 0 -3 8 -1 15 4 15 5 0 12 -12 15 -27 12 -58 40
-135 43 -119 2 9 8 16 13 16 12 0 12 -27 -1 -35 -5 -3 -10 -39 -10 -80 0 -68
-10 -99 -24 -76 -4 5 -2 12 3 15 5 3 7 27 5 53 -2 27 -3 57 -4 68 0 40 -10 66
-22 59 -8 -5 -9 -2 -5 9 3 10 3 17 -1 17 -5 0 -19 14 -31 31 -13 18 -17 28
-10 24 8 -4 1 4 -16 19 -32 27 -23 37 11 11z m1978 -23 c-8 -40 -43 -71 -88
-79 -32 -5 -36 -3 -36 15 0 11 5 33 10 47 9 23 14 26 41 20 24 -6 35 -2 51 15
25 26 30 22 22 -18z m-134 8 c0 -5 -4 -10 -10 -10 -5 0 -10 5 -10 10 0 6 5 10
10 10 6 0 10 -4 10 -10z m-2153 -36 c-36 -35 -50 -62 -24 -48 6 3 -10 -15 -37
-40 -53 -51 -66 -54 -43 -9 15 29 120 133 134 133 4 0 -9 -16 -30 -36z m-174
-184 c-7 -28 -13 -25 -13 6 0 14 4 23 9 20 5 -3 7 -15 4 -26z m62 -70 c2 -11
0 -22 -4 -25 -10 -5 -21 28 -21 60 1 19 1 19 11 2 6 -9 12 -26 14 -37z m-175
28 c0 -5 -4 -8 -9 -8 -5 0 -11 -10 -13 -22 -4 -32 -23 -24 -23 10 0 21 5 27
23 27 12 0 22 -3 22 -7z m86 -15 c-10 -10 -19 5 -10 18 6 11 8 11 12 0 2 -7 1
-15 -2 -18z m1651 11 c-3 -3 -12 -4 -19 -1 -8 3 -5 6 6 6 11 1 17 -2 13 -5z
m-1527 -44 c0 -24 28 -70 42 -70 5 0 6 5 3 10 -3 6 0 10 8 10 9 0 19 -18 26
-44 9 -38 17 -47 54 -65 24 -12 55 -21 70 -21 29 0 30 -1 21 -24 -5 -14 -8
-14 -21 0 -9 9 -22 12 -32 8 -9 -4 -25 -6 -35 -6 -28 1 -96 53 -132 100 -30
38 -34 56 -25 115 2 17 21 5 21 -13z m-630 -17 c0 -19 -3 -24 -10 -17 -6 6 -8
18 -4 27 9 24 14 21 14 -10z m193 -5 c7 -27 -23 -20 -34 8 -6 18 -4 21 11 17
10 -3 20 -14 23 -25z m394 -4 c-3 -3 -12 -4 -19 -1 -8 3 -5 6 6 6 11 1 17 -2
13 -5z m-577 -55 c0 -11 -4 -17 -10 -14 -5 3 -10 15 -10 26 0 11 5 17 10 14 6
-3 10 -15 10 -26z m1707 -55 c-3 -3 -12 -4 -19 -1 -8 3 -5 6 6 6 11 1 17 -2
13 -5z m47 -3 c4 -5 -3 -7 -14 -4 -23 6 -26 13 -6 13 8 0 17 -4 20 -9z m-761
-16 c3 -13 -100 -65 -127 -65 -20 0 -20 0 0 18 27 25 96 61 112 59 7 -1 14 -6
15 -12z m2395 -38 c13 -35 17 -105 5 -94 -3 4 -11 3 -18 -3 -6 -5 -33 -11 -59
-13 -39 -3 -50 0 -62 17 -8 11 -14 25 -14 31 0 5 5 3 10 -5 8 -12 10 -11 10 7
0 15 12 31 35 45 19 13 35 29 35 36 0 6 10 12 23 12 17 0 26 -9 35 -33z
m-2930 -67 c-5 -17 -14 -33 -19 -36 -8 -5 4 37 17 57 11 19 12 8 2 -21z m1349
-94 c23 -49 12 -70 -33 -61 -21 3 -34 2 -30 -3 3 -5 -12 -18 -34 -28 -22 -10
-40 -23 -40 -27 0 -4 -21 -18 -47 -29 -27 -11 -50 -24 -53 -28 -3 -4 -31 -21
-62 -38 -31 -16 -55 -33 -52 -36 2 -3 1 -4 -3 -1 -3 2 -7 27 -8 55 -2 52 10
65 35 35 7 -8 18 -15 24 -14 7 0 6 2 -1 6 -7 2 -13 22 -13 43 0 45 23 60 51
34 18 -16 19 -16 19 9 0 15 9 32 21 40 21 15 59 12 59 -4 0 -20 16 -7 27 21
13 35 22 37 53 10 28 -25 29 -25 23 0 -15 57 38 70 64 16z m1713 13 c0 -5 -4
-9 -10 -9 -5 0 -10 7 -10 16 0 8 5 12 10 9 6 -3 10 -10 10 -16z m-1655 -32 c9
-9 10 -19 4 -28 -8 -12 -12 -11 -24 5 -8 11 -15 23 -15 28 0 12 20 9 35 -5z
m1564 -51 c8 -10 9 -16 1 -21 -13 -8 -30 3 -30 21 0 18 14 18 29 0z m-1485
-46 c-1 -16 2 -30 7 -30 5 0 -1 -11 -13 -25 -12 -14 -29 -25 -39 -25 -10 0
-16 -7 -15 -17 1 -13 -8 -19 -30 -21 -21 -2 -35 -11 -44 -28 -7 -13 -19 -24
-26 -24 -19 0 -64 -22 -60 -29 2 -3 -6 -7 -19 -7 -21 -2 -21 1 12 35 45 47 62
77 39 68 -33 -13 -13 9 55 61 38 29 69 48 69 41 0 -8 6 -7 18 3 9 9 24 18 32
21 8 3 15 6 16 6 0 1 -1 -12 -2 -29z m1340 -75 c-4 -8 -8 -15 -10 -15 -2 0 -4
7 -4 15 0 8 4 15 10 15 5 0 7 -7 4 -15z m58 -32 c8 -10 18 -26 21 -36 4 -9 18
-22 32 -27 14 -5 25 -13 25 -18 0 -4 16 -25 35 -45 30 -32 34 -40 24 -58 -8
-15 -8 -19 0 -15 7 5 11 -3 11 -21 l-1 -28 -24 30 c-18 21 -21 31 -12 37 9 6
8 8 -3 8 -8 0 -26 17 -40 38 -13 20 -37 50 -52 66 -15 15 -28 37 -28 48 0 10
-4 17 -9 14 -5 -3 -11 1 -15 9 -8 21 17 19 36 -2z m-2714 -54 c-3 -33 -4 -33
-8 8 -3 23 -2 39 3 34 5 -5 7 -24 5 -42z m-111 1 c-3 -23 -8 -44 -11 -48 -10
-9 -32 19 -43 54 -10 30 -10 30 25 32 l35 3 -6 -41z m173 25 c7 -9 10 -18 6
-22 -3 -3 -6 -1 -6 5 0 7 -4 12 -10 12 -15 0 -12 -17 7 -35 16 -16 17 -16 30
1 15 20 18 7 3 -16 -5 -8 -12 -11 -16 -7 -4 4 -14 1 -22 -6 -13 -10 -14 -9 -7
2 6 11 4 13 -8 8 -14 -5 -17 0 -17 33 0 43 17 53 40 25z m-120 -2 c0 -5 -5
-15 -10 -23 -8 -12 -10 -11 -10 8 0 12 5 22 10 22 6 0 10 -3 10 -7z m27 -35
c-3 -8 -6 -5 -6 6 -1 11 2 17 5 13 3 -3 4 -12 1 -19z m119 -114 c-6 -15 -4
-15 11 -3 15 12 16 12 10 -4 -4 -10 -7 -23 -7 -28 0 -17 -19 -9 -31 12 -9 17
-8 23 2 30 20 12 22 11 15 -7z m-81 -64 c18 -20 18 -20 -13 -4 -34 17 -40 24
-19 24 8 0 22 -9 32 -20z m155 -46 c0 -8 -5 -12 -10 -9 -6 4 -8 11 -5 16 9 14
15 11 15 -7z m21 -54 c36 0 40 -8 22 -46 -19 -38 -24 -37 -64 18 -36 51 -40
82 -6 50 13 -12 35 -22 48 -22z m2315 -94 c1 -14 -4 -27 -12 -30 -15 -6 -17
-2 -8 32 8 29 19 28 20 -2z m-60 -33 c-10 -10 -19 5 -10 18 6 11 8 11 12 0 2
-7 1 -15 -2 -18z m28 -32 c-9 -10 -26 18 -18 30 5 9 9 8 14 -7 4 -10 6 -21 4
-23z m-2239 -10 c-6 -5 -25 10 -25 20 0 5 6 4 14 -3 8 -7 12 -15 11 -17z
m2178 9 c-3 -11 -9 -20 -15 -20 -5 0 -4 9 2 20 6 11 12 20 14 20 2 0 2 -9 -1
-20z m-2049 -9 c3 -4 3 -11 0 -14 -8 -7 -44 4 -44 14 0 12 37 12 44 0z m-146
-13 c15 -15 16 -32 2 -23 -5 3 -10 2 -10 -2 0 -5 14 -17 31 -27 24 -14 44 -17
85 -13 41 4 54 2 54 -8 0 -14 -18 -19 -103 -31 -60 -8 -97 13 -97 55 0 54 14
73 38 49z m222 -108 c6 -11 8 -20 6 -20 -3 0 -10 9 -16 20 -6 11 -8 20 -6 20
3 0 10 -9 16 -20z m-145 -20 c-11 -5 -27 -9 -35 -9 -9 0 -8 4 5 9 11 5 27 9
35 9 9 0 8 -4 -5 -9z m2118 -63 l6 -39 -19 22 c-15 18 -17 25 -7 40 14 23 13
24 20 -23z m-588 -347 c-10 -11 -20 -18 -23 -15 -3 3 3 14 13 25 10 11 20 18
23 15 3 -3 -3 -14 -13 -25z m-1423 -584 c5 4 4 -4 -3 -17 -7 -13 -13 -27 -14
-31 -1 -18 -15 -18 -15 0 0 11 4 23 10 27 5 3 8 11 6 18 -1 7 -1 9 1 4 3 -4 9
-4 15 -1z m64 -60 c0 -13 -5 -22 -10 -18 -5 3 -7 -2 -3 -11 3 -10 2 -17 -2
-17 -5 0 -11 7 -15 15 -3 8 0 15 6 15 7 0 7 4 -1 14 -10 11 -8 15 6 19 10 3
19 5 19 6 1 0 1 -10 0 -23z m-92 -67 c-11 -12 -13 -19 -5 -19 8 0 9 -5 2 -17
-5 -10 -11 -38 -15 -62 -3 -25 -9 -47 -13 -50 -5 -3 -9 -19 -9 -36 -2 -41 -14
-108 -20 -114 -2 -2 -10 1 -17 8 -7 9 -8 15 -2 17 6 2 10 20 9 39 -1 24 2 35
12 35 8 0 14 5 14 11 0 5 -4 7 -10 4 -5 -3 -10 3 -10 15 0 11 7 23 16 27 13 5
13 7 2 14 -7 5 -8 9 -2 9 7 0 9 11 6 27 -3 18 1 30 12 39 12 8 16 19 11 33 -4
12 -2 21 4 21 6 0 8 7 5 15 -5 11 -2 13 10 9 16 -6 16 -8 0 -25z m66 -19 c-9
-5 -9 -9 -1 -14 19 -12 13 -47 -9 -53 -11 -3 -20 -9 -20 -14 0 -5 -4 -9 -9 -9
-8 0 -5 23 14 108 8 32 8 32 23 11 11 -16 12 -23 2 -29z m-4 -115 c4 -8 3 -23
-1 -32 -6 -16 -8 -15 -19 6 -10 18 -15 20 -19 10 -3 -8 -6 -5 -6 9 -1 16 5 22
19 22 11 0 23 -7 26 -15z m-196 -638 c0 -7 -8 -31 -19 -52 -13 -28 -16 -47
-10 -67 6 -22 4 -28 -7 -28 -23 0 -27 26 -13 95 10 51 16 65 31 65 10 0 18 -6
18 -13z m73 -37 c-1 -19 -3 -42 -3 -50 -4 -56 -17 -71 -49 -51 -8 5 -10 14 -5
22 4 8 7 28 5 46 -3 40 15 75 37 71 13 -3 16 -13 15 -38z m-37 -131 c18 -20
18 -21 -1 -35 -10 -8 -13 -14 -7 -14 13 0 16 -38 6 -64 -3 -9 -15 -16 -25 -16
-23 0 -25 -28 -3 -44 13 -10 14 -19 6 -46 -6 -19 -11 -27 -11 -18 -1 10 -4 17
-8 17 -25 -4 -34 3 -28 21 3 11 8 31 11 45 2 14 6 37 8 51 3 14 10 41 16 60 7
19 9 41 6 49 -8 22 8 18 30 -6z m-71 -7 c-6 -4 -10 -18 -9 -32 3 -35 -8 -51
-26 -40 -13 9 -13 10 0 10 13 0 13 1 0 10 -9 6 -10 10 -3 10 7 0 10 10 7 25
-4 21 0 25 18 25 13 0 18 -4 13 -8z m-27 -117 c0 -15 -6 -25 -14 -25 -15 0
-18 18 -8 44 9 22 22 11 22 -19z m-12 -97 c-6 -35 -14 -66 -19 -69 -5 -3 -8
-9 -8 -13 4 -31 -1 -76 -9 -76 -14 0 -5 103 9 108 6 2 11 8 11 13 0 6 -5 7
-11 3 -8 -4 -9 1 -4 17 4 13 12 26 17 27 5 2 4 10 -3 18 -9 11 -8 14 2 14 11
0 11 2 -1 10 -12 8 -11 10 6 10 19 0 20 -3 10 -62z"/>
<path d="M3130 4826 c0 -9 30 -14 35 -6 4 6 -3 10 -14 10 -12 0 -21 -2 -21 -4z"/>
<path d="M3188 4823 c7 -3 16 -2 19 1 4 3 -2 6 -13 5 -11 0 -14 -3 -6 -6z"/>
<path d="M2836 4524 c-9 -24 -2 -26 12 -4 7 11 8 20 3 20 -5 0 -12 -7 -15 -16z"/>
<path d="M2475 4440 c3 -5 10 -10 16 -10 5 0 9 5 9 10 0 6 -7 10 -16 10 -8 0
-12 -4 -9 -10z"/>
<path d="M2540 4440 c0 -5 5 -10 11 -10 5 0 7 5 4 10 -3 6 -8 10 -11 10 -2 0
-4 -4 -4 -10z"/>
<path d="M3391 4304 c0 -11 3 -14 6 -6 3 7 2 16 -1 19 -3 4 -6 -2 -5 -13z"/>
<path d="M3283 4234 c0 -8 9 -14 19 -14 10 0 18 4 18 9 0 5 -8 11 -18 13 -11
3 -19 0 -19 -8z"/>
<path d="M3976 4477 c3 -10 9 -15 12 -12 3 3 0 11 -7 18 -10 9 -11 8 -5 -6z"/>
<path d="M2115 1790 c-7 -12 2 -30 16 -30 5 0 9 9 9 20 0 21 -15 27 -25 10z"/>
<path d="M1910 1054 c0 -8 5 -12 10 -9 6 3 10 10 10 16 0 5 -4 9 -10 9 -5 0
-10 -7 -10 -16z"/>
<path d="M1980 1026 c0 -14 5 -26 10 -26 6 0 10 7 10 15 0 8 0 18 1 22 0 4 -4
9 -10 11 -6 2 -11 -8 -11 -22z"/>
<path d="M1981 944 c0 -11 3 -14 6 -6 3 7 2 16 -1 19 -3 4 -6 -2 -5 -13z"/>
<path d="M1947 834 c-10 -10 -9 -44 2 -44 13 0 23 32 13 42 -5 5 -11 5 -15 2z"/>
<path d="M1820 5600 l-25 -8 28 -1 c15 -1 27 4 27 9 0 6 -1 10 -2 9 -2 -1 -14
-5 -28 -9z"/>
<path d="M3605 5390 c-3 -5 -1 -10 4 -10 6 0 11 5 11 10 0 6 -2 10 -4 10 -3 0
-8 -4 -11 -10z"/>
<path d="M3896 4955 c3 -8 10 -12 15 -9 5 3 9 -1 9 -9 0 -17 28 -43 37 -33 7
7 -24 44 -49 57 -14 7 -16 6 -12 -6z"/>
<path d="M3872 4840 c0 -14 2 -19 5 -12 2 6 2 18 0 25 -3 6 -5 1 -5 -13z"/>
<path d="M3892 4815 c0 -16 2 -22 5 -12 2 9 2 23 0 30 -3 6 -5 -1 -5 -18z"/>
<path d="M3997 4719 c7 -7 15 -10 18 -7 3 3 -2 9 -12 12 -14 6 -15 5 -6 -5z"/>
<path d="M3970 4710 c0 -5 5 -10 11 -10 5 0 7 5 4 10 -3 6 -8 10 -11 10 -2 0
-4 -4 -4 -10z"/>
<path d="M4082 4374 c1 -9 9 -19 16 -22 9 -3 13 2 10 14 -1 9 -9 19 -16 22 -9
3 -13 -2 -10 -14z"/>
<path d="M4575 4110 c-3 -5 3 -10 14 -10 12 0 21 5 21 10 0 6 -6 10 -14 10 -8
0 -18 -4 -21 -10z"/>
<path d="M4832 4038 c3 -7 15 -15 27 -16 16 -3 22 1 19 10 -3 7 -15 15 -27 16
-16 3 -22 -1 -19 -10z"/>
<path d="M4900 4030 c0 -5 7 -10 16 -10 8 0 12 5 9 10 -3 6 -10 10 -16 10 -5
0 -9 -4 -9 -10z"/>
<path d="M4644 4010 c3 -14 5 -33 5 -42 1 -10 6 -18 11 -18 14 0 12 31 -5 60
l-15 25 4 -25z"/>
<path d="M4870 3776 c0 -2 8 -10 18 -17 15 -13 16 -12 3 4 -13 16 -21 21 -21
13z"/>
<path d="M4667 3743 c-15 -14 -6 -25 16 -18 12 3 39 7 60 7 20 0 37 4 37 9 0
10 -103 12 -113 2z"/>
<path d="M4910 3736 c0 -2 8 -10 18 -17 15 -13 16 -12 3 4 -13 16 -21 21 -21
13z"/>
<path d="M4896 3513 c6 -22 44 -28 44 -7 0 8 -4 14 -9 14 -5 0 -16 3 -24 6
-11 4 -14 0 -11 -13z"/>
<path d="M4863 3126 c35 -31 97 -63 97 -50 0 12 -56 53 -67 49 -7 -2 -13 -1
-13 4 0 4 -12 13 -27 19 -25 11 -24 8 10 -22z"/>
<path d="M4436 3050 c-8 -38 -29 -97 -47 -132 -47 -94 -219 -313 -235 -300 -4
4 -4 1 0 -6 5 -8 -5 -26 -23 -47 -17 -20 -38 -49 -47 -66 -8 -17 -18 -28 -21
-25 -8 8 -33 -13 -33 -27 0 -6 7 -2 16 9 14 17 15 17 10 1 -3 -10 -6 -21 -6
-23 0 -2 -7 -4 -15 -4 -13 0 -19 -12 -12 -25 1 -2 -7 -11 -18 -19 -11 -8 -20
-20 -21 -28 -2 -29 -17 -58 -29 -58 -8 0 -16 -14 -20 -31 -5 -20 -12 -29 -21
-25 -7 3 -16 0 -20 -6 -4 -7 -3 -8 4 -4 15 9 15 10 -2 -38 -7 -21 -19 -42 -26
-46 -7 -4 -13 -20 -15 -36 -1 -16 -16 -60 -34 -98 -17 -38 -31 -71 -31 -73 0
-3 -8 -17 -19 -31 -10 -15 -22 -38 -26 -52 -4 -14 -27 -65 -50 -115 -115 -244
-159 -348 -234 -555 -45 -124 -86 -231 -90 -238 -4 -7 -18 -14 -31 -17 -33 -6
-37 -15 -7 -15 15 0 27 -1 27 -3 0 -1 -25 -74 -55 -162 -30 -87 -55 -160 -55
-162 0 -2 -8 -3 -17 -3 -14 0 -15 -2 -4 -9 11 -7 9 -22 -14 -87 -15 -44 -33
-90 -40 -104 -68 -133 -91 -184 -121 -267 -19 -52 -34 -102 -34 -110 0 -11 14
-13 67 -11 62 3 68 5 73 28 4 19 13 26 38 28 18 2 32 7 32 12 0 5 -14 7 -31 3
-29 -6 -30 -4 -20 14 12 23 60 36 77 22 8 -6 13 -3 17 10 4 17 1 18 -27 10
-17 -5 -35 -9 -40 -9 -14 0 20 45 35 46 8 0 22 2 32 2 10 1 15 7 12 12 -4 6
-16 8 -27 4 -15 -5 -11 5 19 43 32 41 42 48 65 45 16 -3 28 0 28 7 0 11 -13
15 -38 12 -10 -2 -10 2 0 18 6 11 16 17 22 14 5 -3 6 -1 2 5 -10 16 13 55 29
48 7 -2 19 2 27 11 11 14 10 15 -10 9 -27 -9 -29 5 -3 28 11 10 17 25 14 36
-3 12 1 22 11 26 9 3 13 10 10 15 -8 13 17 109 29 109 16 0 38 28 27 35 -5 3
-14 3 -20 0 -19 -12 -10 4 17 30 24 21 25 25 9 25 -12 0 -16 5 -12 16 3 9 6
17 6 20 0 2 7 1 15 -2 8 -4 15 -1 15 6 0 6 4 9 9 5 5 -3 13 0 17 6 5 9 -1 10
-20 5 -19 -5 -26 -3 -26 8 0 8 5 18 12 22 7 4 8 3 4 -4 -5 -8 2 -12 18 -12 16
0 25 5 24 13 -2 6 3 11 10 9 8 -1 11 2 7 8 -3 6 -11 8 -16 5 -5 -4 -9 1 -9 9
0 8 8 20 18 25 15 10 15 11 -6 17 -21 6 -21 7 -5 19 10 7 21 11 25 9 5 -3 8
-1 8 5 0 5 3 18 6 28 5 15 4 15 -5 3 -9 -13 -11 -12 -11 4 0 15 5 17 27 13 15
-3 37 1 49 10 13 8 44 16 71 18 26 1 68 10 92 19 24 9 55 16 70 17 14 0 20 3
14 6 -10 3 -9 13 2 40 19 45 19 56 -1 21 -9 -18 -20 -25 -29 -22 -11 5 -13 2
-9 -10 3 -9 1 -17 -5 -17 -20 -2 -26 -5 -49 -17 -12 -7 -27 -10 -32 -7 -6 3
-10 2 -10 -3 0 -9 -39 -14 -107 -14 -13 0 -23 -4 -23 -9 0 -17 -20 -9 -35 15
-14 21 -15 29 -3 65 9 25 18 37 24 31 5 -5 9 7 9 33 1 25 12 66 29 102 16 33
28 63 28 68 -1 4 2 7 8 7 5 0 10 7 10 15 0 8 37 93 83 188 46 94 92 192 103
217 10 25 21 47 24 50 3 3 6 13 8 23 2 10 18 51 37 90 18 40 50 108 70 152 20
44 59 115 86 157 49 78 85 140 122 213 11 22 30 54 43 71 13 17 24 34 24 37 0
4 21 37 46 74 33 48 48 82 54 121 8 49 27 89 37 79 2 -2 -1 -17 -7 -32 -6 -15
-9 -30 -6 -32 7 -8 38 65 33 79 -2 7 4 25 15 40 23 33 40 130 32 178 -5 30
-47 110 -58 110 -2 0 -11 -31 -20 -70z m-840 -2088 c-9 -8 -26 10 -26 26 1 15
2 15 15 -2 8 -11 13 -21 11 -24z"/>
<path d="M5019 3015 c-1 -3 -2 -8 -3 -12 -1 -5 -7 -18 -14 -30 -15 -27 -32
-114 -25 -126 7 -11 43 22 43 40 0 8 8 22 18 33 17 19 18 19 44 -3 15 -12 44
-56 65 -98 38 -73 93 -146 93 -122 0 7 -4 14 -9 18 -5 3 -15 22 -21 43 -7 20
-28 57 -46 81 -57 74 -39 118 48 116 60 -1 45 7 -57 30 -44 10 -84 22 -89 26
-11 10 -45 12 -47 4z"/>
<path d="M5405 2994 c15 -14 30 -22 34 -19 7 8 -36 45 -52 45 -5 0 2 -11 18
-26z"/>
<path d="M5342 2998 c5 -15 28 -23 28 -10 0 5 -7 13 -16 16 -10 4 -14 1 -12
-6z"/>
<path d="M5307 2979 c7 -7 15 -10 18 -7 3 3 -2 9 -12 12 -14 6 -15 5 -6 -5z"/>
<path d="M4202 2954 c-7 -8 -10 -19 -6 -26 5 -7 10 -3 16 12 10 28 7 33 -10
14z"/>
<path d="M4761 2922 c-7 -13 -7 -22 1 -30 7 -7 7 -16 -1 -29 -10 -17 -10 -16
-11 5 0 13 -4 21 -9 17 -10 -5 5 -65 16 -65 3 0 12 8 20 18 8 9 12 11 8 4 -4
-7 -1 -19 5 -27 11 -13 8 -14 -20 -8 -24 4 -31 3 -26 -5 4 -7 2 -12 -3 -12
-11 0 -14 15 -12 55 0 14 -1 16 -6 5 -3 -8 -13 -23 -21 -33 -14 -16 -14 -20
-2 -27 8 -5 16 -24 18 -42 2 -18 8 -35 13 -36 6 -3 5 -10 -2 -18 -8 -10 -8
-14 0 -14 6 0 11 -6 11 -14 0 -8 5 -27 12 -43 6 -15 10 -34 9 -40 -1 -7 3 -13
9 -13 7 0 9 -8 5 -20 -5 -15 -2 -20 13 -20 24 0 34 10 23 24 -17 23 -49 136
-40 142 6 4 5 11 -2 21 -11 12 -8 13 16 7 16 -4 26 -3 22 2 -7 11 13 39 33 47
11 4 10 7 -7 12 -15 5 -22 14 -21 29 1 12 -6 39 -15 59 -10 21 -15 41 -12 46
3 5 1 12 -4 16 -6 3 -15 -3 -20 -13z m18 -149 c-12 -15 -12 -16 8 -11 16 4 20
2 16 -8 -8 -22 -53 -18 -53 4 0 22 8 32 28 32 12 0 12 -2 1 -17z"/>
<path d="M4927 2933 c-4 -3 -7 -15 -7 -25 0 -10 -5 -18 -10 -18 -6 0 -10 -6
-9 -12 4 -23 -13 -66 -27 -72 -8 -3 -13 -16 -12 -28 0 -13 -1 -27 -2 -33 -2
-5 0 -23 5 -39 5 -19 4 -31 -4 -36 -10 -5 -9 -9 2 -13 31 -12 52 37 62 143 2
19 6 59 9 88 6 53 5 57 -7 45z"/>
<path d="M4814 2887 c3 -10 6 -23 6 -28 0 -5 5 -9 10 -9 14 0 12 13 -6 36 -14
17 -15 17 -10 1z"/>
<path d="M4164 2780 c0 -11 4 -20 8 -20 4 0 8 9 8 20 0 11 -4 20 -8 20 -4 0
-8 -9 -8 -20z"/>
<path d="M4688 2773 c7 -3 16 -2 19 1 4 3 -2 6 -13 5 -11 0 -14 -3 -6 -6z"/>
<path d="M4140 2739 c0 -5 5 -7 10 -4 6 3 10 8 10 11 0 2 -4 4 -10 4 -5 0 -10
-5 -10 -11z"/>
<path d="M4170 2709 c0 -5 5 -7 10 -4 6 3 10 8 10 11 0 2 -4 4 -10 4 -5 0 -10
-5 -10 -11z"/>
<path d="M4116 2683 c-6 -14 -5 -15 5 -6 7 7 10 15 7 18 -3 3 -9 -2 -12 -12z"/>
<path d="M4089 2643 c-13 -16 -12 -17 4 -4 16 13 21 21 13 21 -2 0 -10 -8 -17
-17z"/>
<path d="M4135 2640 c-10 -11 -16 -22 -14 -24 2 -2 12 7 22 20 22 29 17 32 -8
4z"/>
<path d="M3794 2608 l-19 -23 23 19 c12 11 22 21 22 23 0 8 -8 2 -26 -19z"/>
<path d="M4036 2613 c-6 -14 -5 -15 5 -6 7 7 10 15 7 18 -3 3 -9 -2 -12 -12z"/>
<path d="M4075 2599 c-4 -6 -5 -12 -2 -15 2 -3 7 2 10 11 7 17 1 20 -8 4z"/>
<path d="M6267 2537 c-3 -7 -23 -19 -46 -26 -23 -6 -41 -15 -41 -20 0 -7 -102
-61 -190 -100 -87 -39 -281 -75 -389 -72 -66 1 -98 8 -211 43 -19 6 -63 30
-98 54 -35 24 -65 44 -67 44 -16 0 37 -65 65 -80 83 -43 123 -60 149 -63 15
-2 38 -11 52 -20 13 -10 25 -13 27 -9 4 14 54 1 92 -25 40 -26 58 -30 40 -8
-18 21 -4 32 17 13 29 -25 44 -31 41 -17 -2 8 8 14 22 16 115 11 247 36 256
48 8 11 13 12 22 3 9 -9 12 -9 12 0 0 7 9 12 19 12 11 0 23 5 27 11 3 6 18 9
31 6 19 -3 27 0 30 14 5 16 8 17 21 7 12 -11 16 -10 20 0 6 19 84 102 95 102
17 0 38 31 35 52 -4 25 -23 35 -31 15z"/>
<path d="M4025 2504 c-9 -15 -12 -23 -6 -20 11 7 35 46 28 46 -3 0 -12 -12
-22 -26z"/>
<path d="M4788 2513 c-10 -2 -18 -9 -18 -15 0 -6 10 -8 23 -4 12 3 25 6 30 6
4 0 7 5 7 10 0 10 -12 11 -42 3z"/>
<path d="M5185 2490 c10 -11 20 -20 23 -20 3 0 -3 9 -13 20 -10 11 -20 20 -23
20 -3 0 3 -9 13 -20z"/>
<path d="M4565 2470 c-3 -5 -1 -10 6 -10 10 0 10 -3 2 -11 -6 -6 -9 -18 -6
-25 3 -9 -2 -14 -13 -14 -13 0 -15 -3 -7 -11 13 -13 5 -59 -11 -59 -6 0 -4 -5
4 -10 12 -8 12 -12 2 -18 -10 -7 -8 -14 8 -32 22 -25 28 -42 8 -22 -7 7 -17
12 -22 12 -6 -1 0 -9 13 -20 12 -11 26 -18 31 -15 9 6 21 194 14 223 -7 23
-19 29 -29 12z"/>
<path d="M4797 2468 c-15 -5 -25 -14 -21 -19 5 -8 64 16 64 26 0 7 -10 5 -43
-7z"/>
<path d="M2313 2438 c-10 -18 -13 -39 -3 -33 8 5 21 45 15 45 -2 0 -7 -6 -12
-12z"/>
<path d="M4738 2433 c7 -3 16 -2 19 1 4 3 -2 6 -13 5 -11 0 -14 -3 -6 -6z"/>
<path d="M4825 2430 c-16 -7 -17 -9 -3 -9 9 -1 20 4 23 9 7 11 7 11 -20 0z"/>
<path d="M4775 2410 c3 -5 10 -10 16 -10 5 0 9 5 9 10 0 6 -7 10 -16 10 -8 0
-12 -4 -9 -10z"/>
<path d="M5060 2409 c0 -14 31 -51 34 -41 3 11 56 -21 54 -32 -3 -14 77 -96
94 -96 4 0 30 -10 56 -21 99 -45 110 -49 125 -49 9 0 18 -6 21 -12 5 -10 7
-10 12 -1 4 10 11 10 26 2 21 -11 59 -20 90 -20 10 0 20 -4 23 -9 3 -5 12 -7
19 -4 8 3 17 1 21 -5 12 -20 27 -12 20 10 -6 16 -4 20 6 13 16 -10 42 -15 89
-17 19 -1 41 -6 48 -10 15 -10 16 5 0 21 -7 7 -8 12 -2 12 6 0 15 -5 22 -12
17 -17 28 -2 12 17 -7 8 -9 15 -5 15 4 0 15 -10 25 -22 10 -13 22 -20 26 -16
4 4 1 14 -6 23 -16 20 -6 19 28 -2 26 -17 27 -17 12 1 -14 17 -12 18 28 12 24
-3 47 -8 53 -11 5 -3 6 1 3 9 -7 19 7 21 23 5 9 -9 18 -8 38 5 25 17 26 18 8
31 -22 17 -33 19 -33 5 0 -5 7 -10 15 -10 8 0 15 -4 15 -10 0 -13 -3 -13 -45
7 -28 13 -40 15 -54 6 -10 -6 -44 -10 -77 -8 -32 2 -64 -1 -71 -7 -7 -6 -13
-7 -13 -4 0 4 -9 2 -20 -4 -11 -6 -20 -7 -20 -3 0 4 -10 9 -22 9 -103 5 -279
44 -348 76 -36 16 -87 39 -113 49 -48 19 -71 32 -140 77 -30 20 -40 23 -47 13
-6 -10 -10 -9 -19 5 -9 16 -10 16 -11 3z"/>
<path d="M2452 2390 c0 -14 2 -19 5 -12 2 6 2 18 0 25 -3 6 -5 1 -5 -13z"/>
<path d="M4739 2391 c8 -5 11 -16 8 -25 -3 -8 -2 -18 4 -22 6 -3 8 -13 5 -21
-4 -9 1 -21 11 -29 15 -11 15 -13 3 -14 -11 0 -8 -6 9 -20 18 -15 19 -20 7
-20 -23 0 -20 -15 7 -34 15 -12 16 -15 5 -12 -23 7 -32 -9 -13 -24 7 -6 11
-18 8 -26 -4 -10 2 -17 16 -21 25 -6 29 -25 5 -21 -10 2 -19 -3 -21 -9 -3 -7
2 -13 10 -13 8 0 20 -7 28 -16 11 -13 11 -15 -2 -14 -7 1 -36 2 -62 1 -44 -1
-47 -2 -33 -17 16 -16 12 -39 -5 -29 -5 4 -9 2 -9 -2 0 -5 10 -14 22 -22 17
-11 23 -11 26 -1 3 9 6 9 13 -1 7 -11 9 -11 9 2 0 9 -7 19 -15 23 -8 3 -15 13
-15 23 0 15 2 16 10 3 8 -12 12 -12 18 -2 7 10 12 9 23 -4 11 -13 11 -18 2
-21 -21 -7 -15 -21 15 -31 24 -9 25 -10 5 -11 -28 -1 -30 -21 -3 -28 11 -3 20
-9 20 -14 0 -5 -9 -9 -20 -9 -11 0 -20 -4 -20 -9 0 -5 9 -13 20 -16 27 -8 25
-23 -2 -28 -22 -3 -21 -4 7 -16 l30 -13 -28 -10 c-30 -11 -28 -28 4 -28 10 0
19 -4 19 -9 0 -13 -37 -24 -51 -15 -7 4 -9 3 -6 -3 4 -6 20 -13 37 -16 37 -8
40 -27 4 -27 -14 0 -23 -4 -19 -10 3 -5 17 -10 31 -10 29 0 32 -16 3 -25 -26
-8 -18 -17 18 -21 27 -3 28 -1 30 43 1 25 7 50 15 54 10 7 8 9 -5 9 -12 0 -17
6 -15 18 1 9 -1 22 -5 29 -4 6 -1 18 8 26 13 13 13 16 0 27 -11 9 -12 16 -5
25 6 8 6 15 -3 24 -9 9 -9 14 2 20 9 6 10 11 3 15 -12 7 -5 36 12 49 7 5 3 7
-9 5 -28 -4 -26 24 3 38 35 17 34 20 -3 16 -27 -3 -35 -1 -35 12 0 9 6 16 13
16 7 1 4 7 -7 15 -16 12 -17 17 -6 30 10 12 10 15 -3 15 -21 0 -30 29 -12 36
8 4 15 10 15 15 0 4 -6 6 -14 3 -19 -7 -30 14 -17 30 9 11 6 15 -11 19 -22 6
-22 6 -2 28 19 22 19 22 -3 17 -18 -5 -23 -2 -23 12 0 10 8 21 18 24 10 3 7 4
-8 3 -16 -1 -26 4 -28 16 -2 12 3 17 20 17 18 0 20 2 8 10 -9 6 -18 6 -24 0
-17 -17 -28 -11 -21 10 5 16 2 20 -17 20 -17 0 -19 -3 -9 -9z"/>
<path d="M2345 2360 c-3 -5 -1 -10 4 -10 6 0 11 5 11 10 0 6 -2 10 -4 10 -3 0
-8 -4 -11 -10z"/>
<path d="M2450 2336 c0 -31 6 -34 13 -6 3 11 1 23 -4 26 -5 3 -9 -6 -9 -20z"/>
<path d="M4950 2311 c0 -5 5 -13 10 -16 6 -3 10 -2 10 4 0 5 -4 13 -10 16 -5
3 -10 2 -10 -4z"/>
<path d="M2100 2287 c0 -9 -4 -17 -10 -17 -5 0 -6 -7 -3 -17 5 -12 3 -14 -7
-8 -9 5 -11 4 -6 -3 4 -7 11 -12 16 -12 10 0 24 59 16 67 -3 4 -6 -1 -6 -10z"/>
<path d="M2456 2284 c-4 -9 -4 -19 -1 -22 2 -3 7 3 11 12 4 9 4 19 1 22 -2 3
-7 -3 -11 -12z"/>
<path d="M4325 2260 c-4 -17 -5 -34 -2 -36 3 -3 8 9 12 26 4 17 5 34 2 36 -3
3 -8 -9 -12 -26z"/>
<path d="M4940 2280 c0 -5 5 -10 11 -10 5 0 7 5 4 10 -3 6 -8 10 -11 10 -2 0
-4 -4 -4 -10z"/>
<path d="M3505 2260 c3 -5 8 -10 11 -10 2 0 4 5 4 10 0 6 -5 10 -11 10 -5 0
-7 -4 -4 -10z"/>
<path d="M2461 2213 c0 -25 1 -26 9 -8 12 27 12 35 0 35 -5 0 -10 -12 -9 -27z"/>
<path d="M2750 2225 c7 -9 15 -13 17 -11 7 7 -7 26 -19 26 -6 0 -6 -6 2 -15z"/>
<path d="M2060 2208 c0 -4 7 -8 15 -8 8 0 15 4 15 8 0 5 -7 9 -15 9 -8 0 -15
-4 -15 -9z"/>
<path d="M3836 2195 c-9 -26 -7 -32 5 -12 6 10 9 21 6 23 -2 3 -7 -2 -11 -11z"/>
<path d="M2632 2180 c0 -14 2 -19 5 -12 2 6 2 18 0 25 -3 6 -5 1 -5 -13z"/>
<path d="M4307 2193 c-4 -3 -7 -11 -7 -17 0 -6 5 -5 12 2 6 6 9 14 7 17 -3 3
-9 2 -12 -2z"/>
<path d="M6350 2189 c0 -5 -11 -11 -25 -15 -16 -4 -25 -13 -25 -26 0 -15 5
-18 20 -13 11 4 20 2 20 -4 0 -6 5 -11 10 -11 6 0 10 8 10 17 0 9 9 26 19 37
20 21 20 21 -5 22 -13 1 -24 -2 -24 -7z"/>
<path d="M2472 2155 c0 -16 2 -22 5 -12 2 9 2 23 0 30 -3 6 -5 -1 -5 -18z"/>
<path d="M2800 2176 c0 -2 8 -10 18 -17 15 -13 16 -12 3 4 -13 16 -21 21 -21
13z"/>
<path d="M5033 2166 c19 -14 24 -56 6 -56 -6 0 -2 -11 9 -25 12 -15 18 -34 15
-45 -3 -11 1 -27 8 -36 9 -11 9 -18 2 -22 -8 -5 -5 -15 8 -31 15 -18 25 -22
46 -16 21 5 24 8 12 16 -12 7 -12 9 1 9 69 0 81 -36 13 -39 -48 -1 -74 -14
-58 -28 4 -5 9 -3 11 2 3 8 89 12 89 5 0 -9 41 -6 47 3 5 8 11 6 22 -8 13 -18
13 -21 -5 -27 -10 -4 -26 -5 -35 -1 -12 4 -15 2 -12 -8 2 -7 13 -14 24 -15 47
-2 55 -5 51 -16 -2 -7 -11 -12 -21 -10 -9 2 -16 -1 -16 -7 0 -5 -10 -7 -22 -3
-13 3 -19 1 -15 -5 9 -14 66 -22 73 -11 3 5 12 4 20 -3 11 -9 11 -13 0 -24 -7
-7 -19 -13 -27 -13 -33 2 -50 -3 -44 -12 3 -5 13 -10 21 -10 8 0 12 5 9 10 -3
6 -2 10 3 10 6 0 13 -8 17 -17 6 -17 7 -17 16 0 6 9 15 17 20 17 6 0 8 -4 5
-9 -4 -5 0 -12 6 -14 10 -4 10 -8 -1 -15 -11 -8 -10 -14 8 -33 25 -27 27 -41
6 -33 -23 9 -18 -6 10 -32 28 -26 32 -39 10 -30 -20 7 -19 -4 3 -20 25 -19 35
-17 29 6 -5 19 3 24 40 23 7 -1 10 3 7 8 -3 5 -20 10 -37 10 -18 1 -24 3 -14
6 20 5 23 23 4 23 -7 0 -13 9 -14 20 -1 15 4 20 23 20 31 0 52 -19 47 -41 -3
-10 4 -26 16 -35 12 -10 21 -22 21 -27 0 -5 -7 -4 -15 3 -13 11 -14 10 -9 -3
5 -14 27 -29 46 -31 3 -1 10 -5 15 -10 4 -5 3 -7 -2 -3 -6 3 -16 -3 -23 -14
-11 -17 -9 -19 15 -21 16 0 39 0 53 1 34 3 19 -10 -21 -18 -36 -7 -52 -31 -21
-31 11 0 26 -7 33 -16 11 -14 10 -16 -16 -14 -48 3 -67 1 -61 -8 3 -5 28 -8
55 -7 80 3 102 -22 23 -26 -48 -3 -47 -12 1 -14 18 -1 42 -7 53 -14 17 -10 14
-11 -18 -9 -21 1 -43 -3 -49 -9 -9 -9 -6 -12 12 -12 56 -1 61 -2 55 -16 -3 -8
3 -19 12 -24 15 -9 15 -11 -3 -12 -11 -1 -24 -3 -30 -4 -5 -2 -26 -4 -45 -5
-35 -2 -35 -2 -7 -10 15 -5 42 -7 59 -4 17 2 38 -2 47 -9 11 -9 13 -9 8 0 -4
6 -3 14 3 18 6 4 7 11 4 17 -4 7 -2 8 5 4 6 -4 9 -11 7 -15 -3 -4 -1 -13 5
-21 6 -11 9 -8 9 14 0 24 2 27 15 16 12 -10 15 -9 15 4 0 10 5 14 10 11 6 -3
10 -1 10 5 0 7 -8 9 -20 5 -12 -4 -27 -1 -35 5 -8 6 -24 9 -35 5 -19 -6 -20
-5 -8 14 10 17 15 18 28 7 28 -24 40 -28 40 -12 0 9 -6 16 -14 16 -8 0 -16 7
-19 14 -8 19 19 10 45 -16 10 -10 24 -15 34 -11 14 5 15 3 5 -15 -8 -15 -8
-22 -1 -22 5 0 10 5 10 11 0 5 5 7 10 4 20 -12 9 -24 -30 -35 -54 -14 -51 -24
5 -17 27 4 47 2 51 -4 4 -7 0 -9 -12 -5 -23 7 -49 -8 -40 -23 4 -6 12 -11 17
-11 6 0 7 5 3 12 -5 8 -2 9 12 4 10 -4 26 -10 34 -13 13 -4 13 -4 0 6 -13 9
-12 12 5 26 11 9 15 14 9 11 -7 -3 -18 2 -25 11 -13 14 -11 16 18 11 18 -2 30
-1 28 3 -3 4 2 10 11 13 24 9 31 7 14 -4 -13 -8 -12 -10 3 -10 13 0 17 5 13
18 -10 29 43 43 96 25 29 -10 44 -11 46 -4 2 6 13 11 23 11 11 0 29 5 40 10
13 8 25 7 39 0 26 -14 25 -6 -2 20 l-22 20 21 0 c12 0 24 -6 26 -12 4 -10 6
-10 6 0 1 6 8 12 16 12 9 0 12 6 9 15 -8 20 15 19 38 -2 11 -10 18 -12 18 -4
0 15 -104 64 -108 51 -4 -12 -49 -12 -77 0 -11 5 -14 9 -7 9 16 1 -12 47 -47
78 -25 21 -25 22 -3 16 16 -4 22 -1 22 11 0 10 9 16 24 16 13 0 27 6 30 13 5
10 7 10 12 0 10 -22 36 -15 29 7 -5 14 -2 20 9 20 9 0 16 8 16 18 0 13 2 14 9
4 6 -11 10 -11 19 0 6 7 31 22 56 33 44 19 59 35 34 35 -6 0 -3 7 8 15 10 8
15 15 10 15 -4 0 4 16 19 36 32 41 27 52 -14 34 -17 -7 -50 -14 -73 -16 -59
-4 -140 -22 -151 -33 -12 -12 -55 -1 -61 16 -5 12 -1 14 14 10 11 -3 20 -1 20
4 0 5 7 9 15 9 8 0 15 7 15 16 0 15 10 14 58 -3 6 -3 12 0 12 6 0 6 -5 11 -12
11 -9 0 -9 3 1 13 10 10 14 9 22 -6 10 -16 28 -17 79 -1 13 5 13 6 0 14 -11 7
-11 10 -2 10 7 0 24 12 37 28 13 15 25 21 25 15 0 -7 5 -13 11 -13 6 0 8 7 5
15 -3 8 -9 22 -12 30 -4 11 0 15 15 15 29 0 26 18 -5 30 -32 13 -34 13 -34 -2
0 -10 -19 -12 -77 -7 -86 6 -96 4 -70 -16 15 -11 15 -14 2 -25 -8 -7 -13 -15
-11 -19 7 -11 -119 -6 -141 7 -12 6 -37 12 -55 11 -18 0 -26 -3 -18 -6 8 -3
19 -11 25 -16 15 -14 -24 -54 -47 -49 -27 6 -22 -4 25 -55 l42 -46 -31 6 c-17
3 -65 9 -107 13 -74 6 -77 6 -77 -15 0 -12 6 -21 15 -21 8 0 15 -4 15 -10 0
-5 7 -10 15 -10 10 0 12 -6 8 -17 -6 -16 -5 -16 11 -4 9 8 16 10 15 5 -1 -5
-1 -17 0 -26 2 -26 21 -22 22 5 0 19 1 20 8 4 4 -10 11 -18 16 -17 6 1 12 -8
15 -20 3 -12 10 -21 15 -21 6 0 9 -7 8 -15 0 -10 4 -13 14 -10 8 3 17 6 19 6
3 0 2 4 -1 10 -3 5 0 7 9 4 8 -3 12 -12 9 -20 -3 -9 1 -14 12 -14 14 0 15 -3
5 -15 -7 -8 -18 -15 -25 -15 -17 0 -132 75 -158 104 -12 13 -49 32 -82 42 -36
12 -60 25 -60 33 0 21 25 26 26 4 0 -17 1 -17 8 0 4 10 10 18 14 18 9 -1 9 1
2 22 -4 9 -13 17 -20 17 -7 0 -18 7 -25 15 -7 9 -21 13 -30 10 -10 -3 -29 -1
-43 4 -18 7 -27 7 -31 -2 -2 -7 -5 -4 -5 6 -1 18 -26 23 -36 7 -4 -6 -11 -7
-17 -4 -7 4 -8 2 -4 -4 4 -7 13 -12 21 -12 7 0 15 -6 18 -14 3 -8 20 -13 44
-13 32 1 39 -2 41 -21 2 -12 -1 -22 -6 -22 -15 0 -74 32 -124 67 -56 38 -55
38 -62 16 -4 -14 -4 -13 -3 2 2 26 -61 104 -104 129 -29 17 -32 17 -26 2 5
-13 3 -15 -12 -6 -10 5 -22 21 -25 35 -4 14 -11 25 -17 25 -6 0 -25 16 -42 35
-33 37 -47 44 -47 21 0 -10 -7 -12 -22 -8 l-22 5 23 8 c18 7 20 12 11 29 -6
11 -17 20 -25 20 -8 0 -15 7 -15 15 0 8 -4 15 -9 15 -5 0 -11 9 -14 20 -3 11
-13 20 -24 20 -17 -1 -17 -1 0 -14z m157 -173 c0 -7 -14 -10 -40 -9 -43 3 -68
16 -32 16 12 0 22 6 22 14 0 11 5 12 25 3 14 -7 25 -17 25 -24z m27 -65 c-3
-7 -5 -2 -5 12 0 14 2 19 5 13 2 -7 2 -19 0 -25z m968 -96 c-3 -3 -11 0 -18 7
-9 10 -8 11 6 5 10 -3 15 -9 12 -12z m-808 -24 c-3 -8 -6 -5 -6 6 -1 11 2 17
5 13 3 -3 4 -12 1 -19z m53 -34 c0 -8 -5 -12 -10 -9 -6 4 -8 11 -5 16 9 14 15
11 15 -7z m192 -26 c-7 -7 -12 -8 -12 -2 0 14 12 26 19 19 2 -3 -1 -11 -7 -17z
m359 12 c27 -15 24 -28 -6 -22 -14 2 -25 11 -25 18 0 17 5 17 31 4z m-567 -36
c8 -21 8 -24 -3 -24 -5 0 -11 9 -14 20 -6 24 8 27 17 4z m206 -4 c0 -5 -4 -10
-10 -10 -5 0 -10 5 -10 10 0 6 5 10 10 10 6 0 10 -4 10 -10z m59 -89 c8 -5 9
-11 3 -15 -5 -3 -15 1 -22 9 -14 16 -3 20 19 6z m312 -120 c13 -11 22 -22 19
-24 -3 -3 -18 6 -35 19 -16 13 -25 24 -19 24 7 0 22 -9 35 -19z m-401 -71 c0
-5 -2 -10 -4 -10 -3 0 -8 5 -11 10 -3 6 -1 10 4 10 6 0 11 -4 11 -10z m130
-40 c0 -5 -7 -7 -15 -4 -8 4 -15 8 -15 10 0 2 7 4 15 4 8 0 15 -4 15 -10z
m-41 -9 c8 -5 9 -11 3 -15 -6 -3 -14 -1 -17 5 -4 5 -13 8 -21 5 -8 -3 -14 -1
-14 4 0 12 30 13 49 1z m-22 -27 c-3 -3 -12 -4 -19 -1 -8 3 -5 6 6 6 11 1 17
-2 13 -5z m78 -5 c11 -17 0 -20 -21 -4 -17 13 -17 14 -2 15 9 0 20 -5 23 -11z
m170 -10 c12 -18 -3 -22 -20 -5 -14 14 -14 16 -1 16 8 0 18 -5 21 -11z m-85
-58 c0 -6 -4 -11 -10 -11 -5 0 -10 4 -10 9 0 5 -3 18 -7 28 -6 17 -6 17 10 1
9 -9 17 -21 17 -27z"/>
<path d="M2070 2149 c0 -6 -7 -8 -16 -5 -8 3 -12 2 -9 -4 10 -15 35 -12 35 5
0 8 -2 15 -5 15 -3 0 -5 -5 -5 -11z"/>
<path d="M1521 2114 c0 -11 3 -14 6 -6 3 7 2 16 -1 19 -3 4 -6 -2 -5 -13z"/>
<path d="M3831 2114 c0 -11 3 -14 6 -6 3 7 2 16 -1 19 -3 4 -6 -2 -5 -13z"/>
<path d="M6212 2109 c-18 -12 -45 -21 -60 -21 -15 0 -30 -5 -34 -11 -4 -7 -12
-6 -23 3 -15 13 -17 11 -13 -10 4 -27 58 -50 58 -24 0 14 7 17 50 18 14 1 24
6 23 12 -1 7 9 9 25 7 22 -4 24 -2 12 7 -11 9 -12 13 -2 17 13 5 17 23 5 23
-5 0 -23 -10 -41 -21z"/>
<path d="M4276 2105 c-3 -9 -6 -22 -5 -28 0 -7 5 -1 10 12 5 13 8 26 5 28 -2
2 -6 -3 -10 -12z"/>
<path d="M2040 2100 c18 -12 30 -13 30 -2 0 4 -10 9 -22 9 -18 2 -20 0 -8 -7z"/>
<path d="M2482 2085 c0 -16 2 -22 5 -12 2 9 2 23 0 30 -3 6 -5 -1 -5 -18z"/>
<path d="M2722 2090 c0 -14 2 -19 5 -12 2 6 2 18 0 25 -3 6 -5 1 -5 -13z"/>
<path d="M5436 2101 c26 -23 124 -41 124 -22 0 5 -8 7 -17 5 -10 -3 -40 2 -67
10 -27 8 -45 11 -40 7z"/>
<path d="M2780 2093 c0 -5 5 -15 10 -23 8 -12 10 -11 10 8 0 12 -4 22 -10 22
-5 0 -10 -3 -10 -7z"/>
<path d="M2771 2034 c0 -11 3 -14 6 -6 3 7 2 16 -1 19 -3 4 -6 -2 -5 -13z"/>
<path d="M4262 2030 c0 -14 2 -19 5 -12 2 6 2 18 0 25 -3 6 -5 1 -5 -13z"/>
<path d="M6028 2043 c7 -3 16 -2 19 1 4 3 -2 6 -13 5 -11 0 -14 -3 -6 -6z"/>
<path d="M2801 2024 c0 -11 3 -14 6 -6 3 7 2 16 -1 19 -3 4 -6 -2 -5 -13z"/>
<path d="M2502 2005 c0 -16 2 -22 5 -12 2 9 2 23 0 30 -3 6 -5 -1 -5 -18z"/>
<path d="M2991 2014 c0 -11 3 -14 6 -6 3 7 2 16 -1 19 -3 4 -6 -2 -5 -13z"/>
<path d="M6335 2020 c3 -5 8 -10 11 -10 2 0 4 5 4 10 0 6 -5 10 -11 10 -5 0
-7 -4 -4 -10z"/>
<path d="M2537 1989 c4 -13 8 -18 11 -10 2 7 -1 18 -6 23 -8 8 -9 4 -5 -13z"/>
<path d="M5337 1999 c7 -7 15 -10 18 -7 3 3 -2 9 -12 12 -14 6 -15 5 -6 -5z"/>
<path d="M5401 1992 c7 -12 22 -22 34 -24 15 -2 21 -12 23 -36 3 -27 7 -32 22
-27 13 4 23 -1 32 -14 8 -14 16 -17 24 -10 8 7 14 6 19 -1 10 -16 28 -12 21 5
-7 20 4 46 16 39 6 -4 14 -1 18 7 7 10 11 10 24 -1 20 -15 31 -7 22 16 -5 12
-15 15 -39 11 -21 -3 -38 1 -49 11 -11 9 -18 11 -18 4 0 -7 5 -12 10 -12 6 0
10 -5 10 -12 0 -6 -10 -2 -22 9 -13 11 -29 18 -36 16 -7 -3 -21 2 -30 10 -9 8
-24 15 -32 15 -8 0 -26 4 -38 8 -22 6 -23 5 -11 -14z m99 -62 c0 -5 -4 -10
-10 -10 -5 0 -10 5 -10 10 0 6 5 10 10 10 6 0 10 -4 10 -10z m55 -18 c-3 -3
-11 0 -18 7 -9 10 -8 11 6 5 10 -3 15 -9 12 -12z"/>
<path d="M4250 1991 c0 -7 -5 -9 -12 -5 -7 5 -8 3 -3 -5 5 -9 10 -10 18 -2 6
6 8 14 4 18 -4 3 -7 1 -7 -6z"/>
<path d="M6305 1980 c-3 -5 3 -10 14 -10 12 0 21 5 21 10 0 6 -6 10 -14 10 -8
0 -18 -4 -21 -10z"/>
<path d="M5670 1955 c0 -8 7 -15 15 -15 8 0 15 4 15 9 0 5 -7 11 -15 15 -9 3
-15 0 -15 -9z"/>
<path d="M4728 1948 c12 -6 22 -15 22 -20 0 -5 5 -6 10 -3 23 14 10 35 -22 34
-31 0 -32 -1 -10 -11z"/>
<path d="M5735 1950 c-3 -5 -2 -10 4 -10 5 0 13 5 16 10 3 6 2 10 -4 10 -5 0
-13 -4 -16 -10z"/>
<path d="M4226 1929 c-23 -27 -15 -35 9 -9 10 11 16 22 14 25 -3 2 -13 -5 -23
-16z"/>
<path d="M4720 1910 c-7 -4 -3 -12 13 -23 21 -14 24 -14 35 3 9 15 7 19 -13
22 -13 3 -29 2 -35 -2z"/>
<path d="M4978 1903 c7 -3 16 -2 19 1 4 3 -2 6 -13 5 -11 0 -14 -3 -6 -6z"/>
<path d="M5133 1883 c9 -2 23 -2 30 0 6 3 -1 5 -18 5 -16 0 -22 -2 -12 -5z"/>
<path d="M4710 1860 c0 -12 43 -31 49 -22 3 5 13 11 21 14 8 3 -4 7 -27 9 -24
3 -43 2 -43 -1z"/>
<path d="M4570 1850 c-12 -7 -10 -9 7 -7 12 0 19 5 17 9 -6 10 -6 10 -24 -2z"/>
<path d="M5128 1853 c7 -3 16 -2 19 1 4 3 -2 6 -13 5 -11 0 -14 -3 -6 -6z"/>
<path d="M5737 1821 c-4 -15 -10 -19 -22 -14 -13 4 -16 2 -13 -8 3 -8 14 -13
24 -12 10 1 38 -5 62 -13 53 -17 52 -17 52 2 0 13 3 14 15 4 25 -21 34 -6 12
21 -17 20 -35 29 -73 34 -46 6 -52 5 -57 -14z"/>
<path d="M780 1810 c0 -5 5 -10 10 -10 6 0 10 5 10 10 0 6 -4 10 -10 10 -5 0
-10 -4 -10 -10z"/>
<path d="M4710 1811 c0 -12 29 -23 41 -15 18 10 9 24 -16 24 -14 0 -25 -4 -25
-9z"/>
<path d="M4988 1813 c6 -2 18 -2 25 0 6 3 1 5 -13 5 -14 0 -19 -2 -12 -5z"/>
<path d="M4573 1803 c9 -2 14 -9 11 -15 -4 -7 -2 -8 4 -4 20 12 13 26 -10 25
-18 -1 -19 -2 -5 -6z"/>
<path d="M5130 1789 c0 -5 5 -7 10 -4 6 3 10 8 10 11 0 2 -4 4 -10 4 -5 0 -10
-5 -10 -11z"/>
<path d="M6080 1790 c0 -5 5 -10 11 -10 5 0 7 5 4 10 -3 6 -8 10 -11 10 -2 0
-4 -4 -4 -10z"/>
<path d="M911 1771 c-17 -13 -20 -20 -11 -23 8 -2 10 -9 6 -17 -7 -11 -10 -11
-17 0 -6 10 -9 7 -9 -10 0 -20 2 -22 16 -10 16 13 48 69 42 74 -2 2 -14 -4
-27 -14z"/>
<path d="M4171 1783 c0 -6 -4 -20 -7 -30 -5 -14 -4 -15 5 -7 7 7 11 20 8 30
-3 11 -5 14 -6 7z"/>
<path d="M4545 1760 c-18 -8 -18 -9 6 -9 14 -1 30 -6 36 -12 7 -7 12 -6 16 5
4 9 2 16 -2 16 -5 0 -15 2 -23 4 -7 3 -22 1 -33 -4z"/>
<path d="M4698 1763 c-10 -2 -18 -8 -18 -13 0 -4 9 -6 19 -3 10 3 28 0 39 -6
17 -9 20 -8 18 7 -3 17 -27 24 -58 15z"/>
<path d="M5150 1740 c0 -5 5 -10 10 -10 6 0 10 5 10 10 0 6 -4 10 -10 10 -5 0
-10 -4 -10 -10z"/>
<path d="M4721 1721 c-9 -6 -9 -10 1 -18 9 -8 16 -7 25 2 9 10 9 14 -1 18 -7
3 -18 2 -25 -2z"/>
<path d="M4565 1710 c3 -5 16 -10 28 -9 21 0 21 1 2 9 -28 12 -37 12 -30 0z"/>
<path d="M5008 1713 c7 -3 16 -2 19 1 4 3 -2 6 -13 5 -11 0 -14 -3 -6 -6z"/>
<path d="M5690 1716 c0 -2 7 -6 15 -10 8 -3 15 -1 15 4 0 6 -7 10 -15 10 -8 0
-15 -2 -15 -4z"/>
<path d="M5094 1703 c10 -10 56 -15 56 -6 0 4 -14 9 -31 10 -18 1 -29 -1 -25
-4z"/>
<path d="M5170 1696 c0 -8 5 -18 10 -21 6 -3 10 1 10 9 0 8 -4 18 -10 21 -5 3
-10 -1 -10 -9z"/>
<path d="M5300 1680 c0 -5 5 -10 11 -10 5 0 7 5 4 10 -3 6 -8 10 -11 10 -2 0
-4 -4 -4 -10z"/>
<path d="M4550 1670 c-12 -7 -8 -11 17 -16 34 -7 36 -24 3 -24 -10 0 -22 -4
-25 -10 -4 -6 11 -10 37 -10 31 0 39 3 28 10 -10 6 -11 10 -2 10 22 0 12 30
-14 40 -30 12 -26 12 -44 0z"/>
<path d="M4700 1669 c-19 -3 -33 -7 -30 -8 13 -6 62 -6 71 0 18 11 -4 16 -41
8z"/>
<path d="M5020 1670 c0 -5 12 -10 28 -9 24 0 25 1 7 9 -27 12 -35 12 -35 0z"/>
<path d="M5135 1659 c-28 -6 -28 -7 -5 -9 14 -1 30 -2 37 -1 6 1 14 -3 18 -9
3 -5 11 -10 16 -10 6 0 8 4 5 9 -4 5 0 11 6 14 23 7 -46 13 -77 6z"/>
<path d="M5395 1660 c3 -5 13 -10 21 -10 8 0 14 5 14 10 0 6 -9 10 -21 10 -11
0 -17 -4 -14 -10z"/>
<path d="M5034 1635 c-7 -17 12 -45 29 -45 6 0 2 7 -9 15 -18 13 -18 14 5 8
17 -4 22 -3 17 5 -4 7 -14 12 -22 12 -8 0 -12 5 -9 10 3 6 4 10 0 10 -3 0 -8
-7 -11 -15z"/>
<path d="M5068 1643 c7 -3 16 -2 19 1 4 3 -2 6 -13 5 -11 0 -14 -3 -6 -6z"/>
<path d="M4860 1625 l-24 -13 24 -4 c13 -1 25 -9 28 -17 3 -9 0 -11 -8 -6 -8
5 -11 3 -8 -5 2 -7 14 -15 26 -17 21 -3 22 -2 7 21 -11 17 -13 25 -4 28 8 3 7
7 -2 15 -11 9 -20 8 -39 -2z"/>
<path d="M2633 1614 c-4 -11 -13 -14 -29 -10 -23 6 -24 4 -24 -43 0 -44 -2
-49 -19 -46 -14 3 -20 -4 -25 -27 -3 -16 -4 -34 -1 -38 3 -4 -2 -10 -10 -14
-8 -3 -15 -18 -15 -33 0 -15 -7 -50 -15 -77 -23 -74 -20 -100 13 -116 15 -7
38 -12 52 -11 20 1 22 0 10 -9 -13 -9 -13 -11 0 -20 19 -12 31 -12 50 0 12 8
10 10 -9 10 -24 0 -24 0 -5 15 13 10 14 14 5 15 -10 0 -11 3 -2 14 9 11 9 15
-1 20 -10 5 -10 7 1 12 11 5 11 8 0 15 -12 8 -12 10 0 18 11 7 11 9 0 14 -12
5 -12 7 0 15 11 8 11 10 0 15 -9 4 -10 8 -4 14 6 4 10 24 10 43 0 19 4 41 9
48 16 22 35 141 23 145 -6 2 -7 11 -3 23 6 12 10 15 13 6 3 -6 9 -10 14 -6 5
3 7 10 4 15 -10 14 -35 10 -42 -7z m6 -50 c3 -16 1 -17 -13 -5 -19 16 -21 34
-3 29 6 -3 14 -13 16 -24z m-17 -51 c-9 -16 -41 -160 -57 -256 -4 -24 -11 -37
-18 -34 -7 3 -10 11 -8 18 2 8 6 34 9 59 3 25 9 48 14 51 5 3 16 44 26 90 9
46 21 87 27 91 14 10 18 2 7 -19z m-83 -140 c0 -32 -3 -42 -8 -29 -7 18 -3 76
5 76 2 0 4 -21 3 -47z m-9 -63 c0 -5 -4 -10 -10 -10 -5 0 -10 5 -10 10 0 6 5
10 10 10 6 0 10 -4 10 -10z"/>
<path d="M4710 1618 c0 -14 15 -16 27 -3 10 11 9 13 -7 12 -11 -1 -20 -5 -20
-9z"/>
<path d="M5166 1614 c-4 -11 -2 -15 8 -11 7 3 18 1 24 -5 6 -6 12 -6 16 1 4 5
14 8 24 5 15 -5 15 -5 -1 6 -9 6 -22 8 -28 5 -5 -4 -16 -2 -23 4 -10 9 -15 8
-20 -5z"/>
<path d="M2485 1592 c-8 -8 8 -32 21 -32 8 0 14 -9 14 -20 0 -13 5 -18 15 -14
11 5 12 11 4 25 -6 13 -6 19 0 19 6 0 8 6 5 14 -5 12 -49 18 -59 8z"/>
<path d="M4550 1569 c-12 -9 -10 -10 9 -5 13 3 33 0 44 -5 15 -9 18 -8 15 3
-6 17 -48 22 -68 7z"/>
<path d="M4695 1569 c-16 -7 -13 -8 13 -5 19 3 36 7 40 10 9 9 -31 6 -53 -5z"/>
<path d="M5053 1573 c9 -2 23 -2 30 0 6 3 -1 5 -18 5 -16 0 -22 -2 -12 -5z"/>
<path d="M5310 1576 c0 -2 7 -6 15 -10 8 -3 15 -1 15 4 0 6 -7 10 -15 10 -8 0
-15 -2 -15 -4z"/>
<path d="M5184 1563 c10 -10 76 -11 70 -1 -3 4 -21 8 -41 8 -20 0 -33 -3 -29
-7z"/>
<path d="M5430 1560 c-12 -8 -10 -10 8 -10 13 0 20 4 17 10 -7 12 -6 12 -25 0z"/>
<path d="M6146 1551 c-4 -5 -2 -12 3 -15 5 -4 12 -2 15 3 4 5 2 12 -3 15 -5 4
-12 2 -15 -3z"/>
<path d="M1565 1530 c3 -5 8 -10 11 -10 2 0 4 5 4 10 0 6 -5 10 -11 10 -5 0
-7 -4 -4 -10z"/>
<path d="M4560 1530 c-11 -7 -4 -10 25 -10 29 0 36 3 25 10 -8 5 -19 10 -25
10 -5 0 -17 -5 -25 -10z"/>
<path d="M4717 1529 c7 -7 15 -10 18 -7 3 3 -2 9 -12 12 -14 6 -15 5 -6 -5z"/>
<path d="M4875 1530 c3 -5 16 -10 28 -9 21 0 21 1 2 9 -28 12 -37 12 -30 0z"/>
<path d="M5052 1528 c2 -5 7 -9 11 -9 4 1 15 1 24 1 23 0 7 13 -17 15 -12 1
-19 -2 -18 -7z"/>
<path d="M5325 1527 c8 -4 21 -7 27 -5 26 4 60 -14 54 -29 -4 -9 -1 -22 6 -30
9 -11 9 -16 -1 -23 -10 -5 -10 -9 -1 -15 19 -12 22 1 12 50 -8 38 -7 45 4 41
7 -3 16 -1 19 4 7 11 -1 12 -82 14 -31 1 -46 -2 -38 -7z"/>
<path d="M5200 1523 c0 -5 12 -13 26 -20 26 -12 26 -12 9 7 -18 20 -35 26 -35
13z"/>
<path d="M5457 1509 c-15 -11 -25 -25 -21 -30 9 -15 24 -10 18 6 -4 9 0 15 9
15 8 0 17 7 21 15 7 19 7 19 -27 -6z"/>
<path d="M6155 1520 c-3 -5 1 -10 9 -10 8 0 18 5 21 10 3 6 -1 10 -9 10 -8 0
-18 -4 -21 -10z"/>
<path d="M6240 1500 c0 -5 12 -10 26 -10 14 0 23 4 19 10 -3 6 -15 10 -26 10
-10 0 -19 -4 -19 -10z"/>
<path d="M5370 1491 c0 -7 -5 -9 -12 -5 -7 5 -8 3 -3 -5 5 -9 10 -10 18 -2 6
6 8 14 4 18 -4 3 -7 1 -7 -6z"/>
<path d="M4570 1480 c20 -13 50 -13 50 0 0 6 -15 10 -32 10 -25 0 -29 -3 -18
-10z"/>
<path d="M4720 1480 c0 -5 4 -10 9 -10 6 0 13 5 16 10 3 6 -1 10 -9 10 -9 0
-16 -4 -16 -10z"/>
<path d="M4887 1479 c7 -7 15 -10 18 -7 3 3 -2 9 -12 12 -14 6 -15 5 -6 -5z"/>
<path d="M5036 1481 c-3 -5 0 -9 7 -8 35 1 46 -4 40 -19 -3 -8 -12 -13 -19
-10 -7 3 -16 1 -19 -5 -4 -5 -11 -7 -16 -4 -5 4 -9 1 -9 -5 0 -8 9 -10 24 -6
14 3 28 1 32 -5 4 -8 9 -7 15 2 8 12 11 11 20 -1 8 -12 9 -12 6 5 -2 11 -9 19
-16 17 -7 -1 -10 2 -7 7 11 17 -6 41 -29 41 -13 0 -26 -4 -29 -9z"/>
<path d="M5185 1480 c-20 -9 -17 -11 21 -15 12 -1 26 -5 33 -9 6 -4 11 -3 11
3 0 6 -9 15 -19 21 -22 11 -20 11 -46 0z"/>
<path d="M4658 1473 c6 -2 18 -2 25 0 6 3 1 5 -13 5 -14 0 -19 -2 -12 -5z"/>
<path d="M5476 1465 c-16 -12 -17 -15 -4 -15 9 0 18 7 22 15 7 18 6 18 -18 0z"/>
<path d="M1570 1451 c0 -6 4 -13 10 -16 6 -3 7 1 4 9 -7 18 -14 21 -14 7z"/>
<path d="M4573 1440 c-33 -14 -29 -16 25 -11 36 3 42 6 27 12 -25 10 -25 10
-52 -1z"/>
<path d="M4710 1432 c0 -5 14 -7 30 -4 17 2 30 6 30 8 0 2 -13 4 -30 4 -16 0
-30 -4 -30 -8z"/>
<path d="M4890 1426 c4 -4 16 -4 26 2 16 9 14 10 -8 9 -15 -1 -23 -6 -18 -11z"/>
<path d="M5159 1427 c11 -11 120 -16 127 -6 6 10 1 11 -78 13 -31 0 -54 -2
-49 -7z"/>
<path d="M5346 1399 c2 -4 16 -6 31 -4 15 1 37 -4 49 -12 21 -13 22 -13 18 4
-4 14 -15 18 -54 18 -26 0 -46 -3 -44 -6z"/>
<path d="M5460 1405 c0 -5 5 -17 10 -25 5 -8 10 -10 10 -5 0 6 -5 17 -10 25
-5 8 -10 11 -10 5z"/>
<path d="M4575 1390 c-4 -6 7 -10 25 -10 18 0 29 4 25 10 -3 6 -15 10 -25 10
-10 0 -22 -4 -25 -10z"/>
<path d="M4700 1390 c-21 -7 -17 -8 20 -9 32 0 41 2 30 9 -17 11 -16 11 -50 0z"/>
<path d="M4880 1390 c0 -4 9 -10 20 -13 11 -3 20 -2 20 3 0 4 -9 10 -20 13
-11 3 -20 2 -20 -3z"/>
<path d="M5050 1390 c0 -6 -4 -8 -10 -5 -5 3 -10 1 -10 -6 0 -7 9 -9 22 -6 12
3 30 1 41 -4 14 -8 22 -7 31 2 8 9 8 10 -1 5 -6 -3 -13 -2 -15 2 -5 14 -58 24
-58 12z"/>
<path d="M5246 1389 c-16 -5 -34 -5 -39 -2 -5 3 -8 0 -5 -8 3 -10 19 -13 53
-11 31 1 52 -3 57 -10 5 -9 8 -9 8 -2 0 22 -43 41 -74 33z"/>
<path d="M683 1298 c-48 -93 -58 -117 -67 -151 -14 -58 16 -21 49 60 19 45 43
96 55 115 22 37 25 48 10 48 -5 0 -27 -33 -47 -72z"/>
<path d="M5350 1360 c0 -5 5 -10 10 -10 6 0 10 5 10 10 0 6 -4 10 -10 10 -5 0
-10 -4 -10 -10z"/>
<path d="M5403 1363 c-7 -3 -13 -9 -13 -15 0 -7 5 -6 14 1 10 8 16 9 21 1 8
-12 25 -13 25 -1 0 11 -30 19 -47 14z"/>
<path d="M5270 1353 c0 -5 -13 -10 -30 -11 -16 0 -37 -5 -45 -10 -12 -6 -5 -9
25 -10 23 -1 46 -4 51 -8 5 -3 9 -1 9 4 0 6 10 8 23 5 12 -3 20 -4 17 -2 -3 2
-15 13 -27 23 -13 11 -23 15 -23 9z"/>
<path d="M4593 1343 c9 -2 25 -2 35 0 9 3 1 5 -18 5 -19 0 -27 -2 -17 -5z"/>
<path d="M4695 1340 c-15 -6 -9 -8 23 -8 23 0 42 4 42 9 0 11 -38 11 -65 -1z"/>
<path d="M5066 1341 c-3 -5 -15 -7 -25 -4 -10 3 -22 0 -25 -5 -4 -6 7 -9 26
-8 18 2 43 4 56 5 13 0 20 6 17 11 -8 12 -42 13 -49 1z"/>
<path d="M4893 1333 c9 -2 23 -2 30 0 6 3 -1 5 -18 5 -16 0 -22 -2 -12 -5z"/>
<path d="M5409 1318 c-11 -8 -11 -9 2 -5 9 3 21 1 27 -5 7 -7 16 -7 29 1 14 8
15 11 3 11 -8 1 -22 3 -31 5 -9 1 -23 -2 -30 -7z"/>
<path d="M4610 1300 l-35 -7 32 -2 c17 0 35 4 38 9 3 6 5 9 3 9 -2 -1 -19 -5
-38 -9z"/>
<path d="M4735 1301 l-30 -7 31 -5 c36 -6 56 -1 48 12 -6 10 -5 10 -49 0z"/>
<path d="M5070 1297 c0 -5 -7 -7 -15 -3 -8 3 -15 2 -15 -3 0 -5 16 -11 35 -13
19 -2 35 0 35 5 0 5 8 6 18 2 13 -5 14 -4 5 6 -14 14 -63 19 -63 6z"/>
<path d="M1340 1286 c0 -9 5 -16 10 -16 6 0 9 -3 8 -7 -2 -13 15 -47 32 -63 9
-8 33 -37 53 -63 21 -27 37 -42 37 -34 0 8 -10 26 -22 40 -39 43 -73 88 -83
111 -5 11 -15 27 -22 34 -11 11 -13 11 -13 -2z"/>
<path d="M4057 1289 c7 -7 15 -10 18 -7 3 3 -2 9 -12 12 -14 6 -15 5 -6 -5z"/>
<path d="M4908 1288 c9 -9 15 -9 24 0 9 9 7 12 -12 12 -19 0 -21 -3 -12 -12z"/>
<path d="M5220 1289 c-38 -7 -38 -9 -2 -13 13 -2 25 1 28 6 3 5 12 4 19 -2 8
-7 20 -7 36 -1 13 5 22 10 19 11 -21 5 -71 5 -100 -1z"/>
<path d="M5560 1289 c-12 -9 -12 -10 4 -5 10 4 26 1 35 -6 14 -12 14 -11 2 5
-16 20 -21 21 -41 6z"/>
<path d="M5413 1283 c-22 -8 -14 -25 7 -18 12 4 27 1 35 -5 11 -9 15 -9 15 -1
0 6 8 11 18 11 14 0 15 2 2 10 -20 13 -33 13 -25 0 8 -12 -1 -13 -23 -1 -9 4
-23 6 -29 4z"/>
<path d="M5367 1269 c7 -7 15 -10 18 -7 3 3 -2 9 -12 12 -14 6 -15 5 -6 -5z"/>
<path d="M4595 1250 c-16 -7 -14 -8 12 -7 17 1 29 5 26 10 -5 9 -12 8 -38 -3z"/>
<path d="M4725 1250 c-15 -6 -7 -9 30 -9 37 0 45 3 30 9 -11 5 -24 9 -30 9 -5
0 -19 -4 -30 -9z"/>
<path d="M4900 1250 c0 -7 24 -20 36 -20 13 0 1 19 -16 23 -11 3 -20 2 -20 -3z"/>
<path d="M5080 1249 c0 -5 -8 -6 -17 -2 -11 4 -15 2 -10 -3 12 -13 60 -12 74
1 8 9 4 12 -18 12 -16 0 -29 -4 -29 -8z"/>
<path d="M5225 1239 l-40 -5 53 -5 c34 -2 57 0 63 7 11 13 -4 13 -76 3z"/>
<path d="M5469 1245 c-3 -2 -22 -6 -42 -8 -21 -2 -41 -8 -45 -12 -4 -5 1 -5
10 -2 10 3 20 2 24 -4 4 -7 10 -6 18 0 7 6 15 8 19 5 9 -9 48 6 42 17 -7 10
-19 12 -26 4z"/>
<path d="M5885 1240 c3 -5 8 -10 11 -10 2 0 4 5 4 10 0 6 -5 10 -11 10 -5 0
-7 -4 -4 -10z"/>
<path d="M5534 1218 c-5 -8 -2 -9 9 -5 9 3 19 2 21 -2 3 -5 17 -8 31 -8 21 0
23 2 14 14 -9 10 -14 11 -19 2 -6 -8 -9 -8 -14 0 -9 14 -33 14 -42 -1z"/>
<path d="M1606 1205 c4 -8 8 -15 10 -15 2 0 4 7 4 15 0 8 -4 15 -10 15 -5 0
-7 -7 -4 -15z"/>
<path d="M4620 1210 c0 -6 7 -10 15 -10 8 0 15 2 15 4 0 2 -7 6 -15 10 -8 3
-15 1 -15 -4z"/>
<path d="M5644 1208 c10 -6 22 -6 26 -2 5 5 -3 10 -18 11 -22 1 -24 0 -8 -9z"/>
<path d="M5720 1210 c0 -5 5 -10 10 -10 6 0 10 5 10 10 0 6 -4 10 -10 10 -5 0
-10 -4 -10 -10z"/>
<path d="M4738 1203 c12 -2 30 -2 40 0 9 3 -1 5 -23 4 -22 0 -30 -2 -17 -4z"/>
<path d="M4910 1206 c0 -2 7 -7 16 -10 8 -3 12 -2 9 4 -6 10 -25 14 -25 6z"/>
<path d="M5073 1203 c-13 -2 -23 -8 -23 -13 0 -6 10 -6 24 0 14 5 27 5 33 -1
6 -6 14 -4 23 6 11 13 9 15 -11 14 -13 -1 -34 -4 -46 -6z"/>
<path d="M5256 1201 c-4 -7 -5 -15 -2 -18 9 -9 19 4 14 18 -4 11 -6 11 -12 0z"/>
<path d="M5303 1203 c-13 -2 -23 -9 -23 -14 0 -11 39 -2 55 12 9 9 7 10 -32 2z"/>
<path d="M5456 1200 c-16 -5 -33 -7 -38 -4 -4 3 -16 0 -25 -5 -14 -9 -10 -10
19 -7 22 2 46 -3 55 -10 19 -14 20 -14 -29 -18 -7 -1 -16 -5 -20 -11 -5 -6
-12 -4 -19 5 -9 13 -10 13 -6 0 2 -11 19 -15 55 -16 53 -2 76 11 51 27 -12 8
-12 11 1 20 12 9 11 10 -5 5 -20 -6 -20 -6 -1 9 22 17 9 19 -38 5z"/>
<path d="M5875 1200 c-3 -6 1 -7 9 -4 18 7 21 14 7 14 -6 0 -13 -4 -16 -10z"/>
<path d="M5206 1188 c7 -10 34 -10 34 0 0 4 -9 8 -19 8 -11 0 -17 -4 -15 -8z"/>
<path d="M6022 1175 c0 -16 4 -43 8 -60 l8 -30 0 30 c0 17 -4 44 -8 60 l-8 30
0 -30z"/>
<path d="M5657 1168 c14 -15 33 -16 33 -2 0 3 -5 2 -12 -2 -7 -5 -9 -2 -6 7 4
10 -1 15 -13 15 -17 0 -17 -2 -2 -18z"/>
<path d="M5704 1179 c14 -9 15 -13 6 -19 -16 -10 -4 -30 17 -30 12 0 13 3 4
13 -6 8 -8 17 -4 21 8 8 -15 26 -32 26 -5 -1 -2 -5 9 -11z"/>
<path d="M5778 1183 c7 -3 16 -2 19 1 4 3 -2 6 -13 5 -11 0 -14 -3 -6 -6z"/>
<path d="M5815 1170 c-3 -5 1 -10 10 -10 9 0 13 5 10 10 -3 6 -8 10 -10 10 -2
0 -7 -4 -10 -10z"/>
<path d="M4625 1160 c-3 -5 1 -10 10 -10 9 0 13 5 10 10 -3 6 -8 10 -10 10 -2
0 -7 -4 -10 -10z"/>
<path d="M4740 1162 c0 -5 14 -9 30 -9 17 0 30 4 30 9 0 4 -13 8 -30 8 -16 0
-30 -4 -30 -8z"/>
<path d="M4895 1158 c-17 -7 -16 -8 4 -4 14 3 30 1 37 -5 7 -6 15 -5 23 4 8
11 5 14 -17 14 -15 0 -37 -4 -47 -9z"/>
<path d="M5090 1160 c0 -5 -8 -7 -17 -4 -12 4 -14 3 -6 -3 10 -7 100 -6 91 2
-11 8 -68 13 -68 5z"/>
<path d="M5270 1159 c0 -5 -14 -9 -31 -9 -16 0 -28 -4 -25 -9 4 -6 20 -5 42 0
25 8 39 7 50 -2 11 -9 14 -8 14 4 0 8 -11 17 -25 19 -14 3 -25 1 -25 -3z"/>
<path d="M5648 1141 l22 -19 -40 -7 c-21 -4 -44 -4 -50 0 -5 3 -10 1 -10 -4 0
-11 11 -14 45 -12 37 2 60 7 73 15 7 4 16 5 20 1 4 -3 -2 -12 -13 -18 -19 -12
-25 -13 -52 -16 -7 0 -13 -5 -13 -10 0 -14 48 -4 66 13 19 20 28 21 21 2 -3
-8 0 -17 8 -20 10 -3 13 3 11 21 -3 26 -29 49 -45 39 -4 -3 -16 3 -26 14 -10
11 -23 20 -29 20 -6 -1 -1 -9 12 -19z"/>
<path d="M5751 1143 c9 -10 8 -13 0 -13 -7 0 -9 -4 -6 -10 7 -12 26 -14 24 -2
-3 20 3 31 19 35 9 2 2 4 -15 4 -27 0 -31 -3 -22 -14z"/>
<path d="M2570 1140 c20 -13 60 -13 60 0 0 6 -17 10 -37 10 -28 0 -34 -3 -23
-10z"/>
<path d="M5535 1140 c-3 -5 1 -10 10 -10 9 0 13 5 10 10 -3 6 -8 10 -10 10 -2
0 -7 -4 -10 -10z"/>
<path d="M5591 1141 c-9 -6 -6 -8 13 -8 14 0 23 3 20 8 -7 11 -15 11 -33 0z"/>
<path d="M5796 1131 c-11 -4 -15 -10 -10 -13 5 -4 18 0 29 8 20 15 12 17 -19
5z"/>
<path d="M4800 1120 c-13 -8 -12 -10 3 -10 9 0 17 5 17 10 0 12 -1 12 -20 0z"/>
<path d="M5100 1122 c0 -6 -10 -12 -22 -15 -13 -2 0 -4 27 -4 28 0 43 2 35 5
-8 2 -21 9 -27 15 -9 6 -13 6 -13 -1z"/>
<path d="M1630 1101 c0 -11 3 -22 8 -24 4 -3 7 6 7 19 0 13 -3 24 -7 24 -5 0
-8 -9 -8 -19z"/>
<path d="M2579 1106 c9 -11 9 -15 -1 -19 -10 -4 -10 -7 1 -15 11 -8 11 -10 0
-14 -10 -3 -7 -8 9 -17 25 -13 53 -4 31 10 -12 8 -12 10 0 18 11 7 11 10 0 15
-11 5 -11 7 -1 12 23 11 12 24 -19 24 -26 0 -29 -3 -20 -14z"/>
<path d="M4615 1110 c-25 -11 1 -11 35 0 20 6 21 8 5 8 -11 0 -29 -3 -40 -8z"/>
<path d="M4923 1113 c9 -2 25 -2 35 0 9 3 1 5 -18 5 -19 0 -27 -2 -17 -5z"/>
<path d="M5260 1110 c-8 -5 -24 -7 -35 -4 -19 5 -19 4 -2 -6 11 -7 34 -9 59
-5 29 5 37 10 27 16 -18 11 -30 11 -49 -1z"/>
<path d="M5390 1111 c0 -5 7 -12 16 -15 14 -5 15 -4 4 9 -14 17 -20 19 -20 6z"/>
<path d="M5432 1103 c6 -8 16 -10 26 -4 8 5 23 6 32 4 10 -3 20 -1 23 4 3 5
-16 9 -43 9 -39 0 -47 -3 -38 -13z"/>
<path d="M5780 1090 c0 -5 5 -10 11 -10 5 0 7 5 4 10 -3 6 -8 10 -11 10 -2 0
-4 -4 -4 -10z"/>
<path d="M4790 1070 c8 -5 24 -10 34 -10 26 0 18 6 -19 14 -22 5 -26 4 -15 -4z"/>
<path d="M4946 1066 c10 -8 21 -12 24 -10 5 6 -21 24 -34 24 -6 0 -1 -6 10
-14z"/>
<path d="M5104 1068 c-3 -5 10 -8 30 -6 19 1 33 5 30 8 -9 8 -55 7 -60 -2z"/>
<path d="M5295 1071 c-11 -5 -25 -6 -31 -4 -7 2 -14 1 -17 -4 -3 -4 15 -8 39
-8 30 -1 44 3 44 12 0 15 -6 15 -35 4z"/>
<path d="M5445 1069 c-15 -6 -9 -8 23 -8 23 -1 42 2 42 7 0 10 -41 11 -65 1z"/>
<path d="M5560 1065 c-7 -8 -9 -15 -6 -15 4 0 14 7 22 15 9 8 11 15 6 15 -5 0
-15 -7 -22 -15z"/>
<path d="M5600 1065 c-11 -13 -10 -14 4 -9 9 3 16 10 16 15 0 13 -6 11 -20 -6z"/>
<path d="M1634 1049 c-3 -6 -1 -16 5 -22 8 -8 11 -5 11 11 0 24 -5 28 -16 11z"/>
<path d="M5375 1050 c3 -5 8 -10 11 -10 2 0 4 5 4 10 0 6 -5 10 -11 10 -5 0
-7 -4 -4 -10z"/>
<path d="M5750 1050 c0 -5 5 -10 11 -10 5 0 7 5 4 10 -3 6 -8 10 -11 10 -2 0
-4 -4 -4 -10z"/>
<path d="M1495 1040 c3 -5 8 -10 11 -10 2 0 4 5 4 10 0 6 -5 10 -11 10 -5 0
-7 -4 -4 -10z"/>
<path d="M5650 1039 c0 -5 9 -9 20 -9 11 0 20 2 20 4 0 2 -9 6 -20 9 -11 3
-20 1 -20 -4z"/>
<path d="M5720 1041 c0 -5 5 -13 10 -16 6 -3 10 -2 10 4 0 5 -4 13 -10 16 -5
3 -10 2 -10 -4z"/>
<path d="M4940 1032 c0 -7 -15 -13 -32 -13 -32 -2 -33 -2 -4 -6 28 -5 56 11
43 24 -4 3 -7 1 -7 -5z"/>
<path d="M5320 1030 c-8 -5 -11 -12 -7 -16 4 -4 13 -2 19 4 15 15 7 24 -12 12z"/>
<path d="M5455 1030 c-16 -7 -14 -8 12 -7 17 1 29 5 26 10 -5 9 -12 8 -38 -3z"/>
<path d="M5620 1030 c0 -5 5 -10 11 -10 5 0 7 5 4 10 -3 6 -8 10 -11 10 -2 0
-4 -4 -4 -10z"/>
<path d="M2585 1020 c-3 -5 1 -11 7 -13 10 -4 9 -8 -2 -16 -12 -8 -12 -11 -1
-11 7 0 11 -6 8 -15 -4 -8 -1 -17 5 -21 7 -4 6 -9 -3 -15 -11 -6 -9 -9 5 -15
14 -5 15 -9 4 -15 -11 -7 -10 -11 2 -19 13 -9 13 -11 0 -20 -13 -8 -12 -10 3
-10 20 0 23 -16 5 -23 -8 -3 -6 -6 5 -6 19 -1 24 -21 5 -21 -6 0 -3 -7 8 -15
12 -9 14 -14 6 -15 -9 0 -12 -10 -10 -27 2 -22 9 -29 32 -31 27 -3 28 -2 22
25 -4 15 -7 36 -7 46 0 9 -4 17 -9 17 -5 0 -7 7 -4 15 4 8 1 15 -6 15 -10 0
-10 3 0 15 10 12 10 15 -4 15 -9 0 -16 5 -16 10 0 6 6 10 13 10 8 0 7 4 -3 10
-13 9 -13 11 0 20 13 8 12 10 -2 10 -20 0 -25 20 -5 20 7 1 5 6 -6 14 -13 10
-15 16 -7 21 9 6 9 10 -1 16 -12 8 -12 10 -1 18 10 6 7 10 -12 13 -15 3 -29 2
-31 -2z"/>
<path d="M5130 1020 c19 -13 30 -13 30 0 0 6 -10 10 -22 10 -19 0 -20 -2 -8
-10z"/>
<path d="M1496 1011 c-4 -5 -1 -11 5 -13 7 -2 13 -13 14 -24 0 -10 20 -48 44
-84 25 -39 40 -55 37 -40 -3 14 -6 44 -6 67 0 35 -3 40 -19 36 -13 -3 -25 5
-40 31 -24 39 -27 41 -35 27z"/>
<path d="M4615 1010 c-3 -5 1 -10 10 -10 9 0 13 5 10 10 -3 6 -8 10 -10 10 -2
0 -7 -4 -10 -10z"/>
<path d="M4655 1010 c3 -5 10 -10 16 -10 5 0 9 5 9 10 0 6 -7 10 -16 10 -8 0
-12 -4 -9 -10z"/>
<path d="M5375 1010 c3 -5 10 -10 16 -10 5 0 9 5 9 10 0 6 -7 10 -16 10 -8 0
-12 -4 -9 -10z"/>
<path d="M5755 1010 c3 -5 8 -10 11 -10 2 0 4 5 4 10 0 6 -5 10 -11 10 -5 0
-7 -4 -4 -10z"/>
<path d="M5650 1000 c0 -5 5 -10 10 -10 6 0 10 5 10 10 0 6 -4 10 -10 10 -5 0
-10 -4 -10 -10z"/>
<path d="M1556 984 c-10 -25 1 -29 14 -5 6 12 7 21 1 21 -5 0 -12 -7 -15 -16z"/>
<path d="M1636 985 c-3 -8 -1 -15 5 -15 7 0 9 -11 5 -27 -5 -21 -4 -24 4 -13
12 19 13 70 1 70 -5 0 -11 -7 -15 -15z"/>
<path d="M5625 990 c3 -5 8 -10 11 -10 2 0 4 5 4 10 0 6 -5 10 -11 10 -5 0 -7
-4 -4 -10z"/>
<path d="M6226 959 c-14 -102 -14 -128 -3 -137 7 -6 41 -15 77 -22 36 -6 73
-13 83 -16 15 -5 17 3 17 68 0 71 -1 73 -32 93 -59 37 -76 45 -106 51 -30 6
-31 5 -36 -37z"/>
<path d="M5315 980 c3 -5 8 -10 11 -10 2 0 4 5 4 10 0 6 -5 10 -11 10 -5 0 -7
-4 -4 -10z"/>
<path d="M5431 981 c-8 -5 -9 -11 -3 -15 5 -3 12 1 16 9 6 17 6 18 -13 6z"/>
<path d="M5380 970 c0 -5 5 -10 10 -10 6 0 10 5 10 10 0 6 -4 10 -10 10 -5 0
-10 -4 -10 -10z"/>
<path d="M5643 963 c-23 -9 -14 -20 12 -15 14 2 22 8 19 13 -6 10 -12 10 -31
2z"/>
<path d="M5590 950 c0 -5 5 -10 11 -10 5 0 7 5 4 10 -3 6 -8 10 -11 10 -2 0
-4 -4 -4 -10z"/>
<path d="M5305 940 c-3 -5 -1 -10 4 -10 6 0 11 5 11 10 0 6 -2 10 -4 10 -3 0
-8 -4 -11 -10z"/>
<path d="M5420 939 c0 -10 23 -17 38 -12 21 8 13 21 -13 19 -14 0 -25 -4 -25
-7z"/>
<path d="M5490 946 c0 -2 7 -6 15 -10 8 -3 15 -1 15 4 0 6 -7 10 -15 10 -8 0
-15 -2 -15 -4z"/>
<path d="M4956 931 c-4 -5 3 -7 14 -4 23 6 26 13 6 13 -8 0 -17 -4 -20 -9z"/>
<path d="M5265 930 c-3 -6 1 -7 9 -4 18 7 21 14 7 14 -6 0 -13 -4 -16 -10z"/>
<path d="M3278 923 c7 -3 16 -2 19 1 4 3 -2 6 -13 5 -11 0 -14 -3 -6 -6z"/>
<path d="M4918 923 c7 -3 16 -2 19 1 4 3 -2 6 -13 5 -11 0 -14 -3 -6 -6z"/>
<path d="M5220 920 c0 -5 5 -10 11 -10 5 0 7 5 4 10 -3 6 -8 10 -11 10 -2 0
-4 -4 -4 -10z"/>
<path d="M5641 921 c-10 -7 -7 -9 12 -8 14 1 23 5 20 10 -6 9 -15 9 -32 -2z"/>
<path d="M4490 916 c0 -2 7 -7 16 -10 8 -3 12 -2 9 4 -6 10 -25 14 -25 6z"/>
<path d="M5320 904 c0 -1 6 -7 14 -13 10 -9 15 -8 19 2 3 8 -3 13 -14 13 -11
0 -19 -1 -19 -2z"/>
<path d="M5454 898 c-3 -4 10 -7 30 -6 19 2 32 5 29 8 -8 8 -54 7 -59 -2z"/>
<path d="M5565 890 c3 -5 8 -10 11 -10 2 0 4 5 4 10 0 6 -5 10 -11 10 -5 0 -7
-4 -4 -10z"/>
<path d="M5505 860 c3 -5 8 -10 11 -10 2 0 4 5 4 10 0 6 -5 10 -11 10 -5 0 -7
-4 -4 -10z"/>
<path d="M5596 825 c-9 -26 -7 -32 5 -12 6 10 9 21 6 23 -2 3 -7 -2 -11 -11z"/>
<path d="M1601 790 c5 -16 13 -43 18 -60 7 -20 6 -30 -1 -30 -6 0 -5 -7 3 -17
11 -13 11 -17 2 -20 -7 -3 -13 -16 -13 -29 0 -14 -4 -22 -10 -19 -11 7 -33
-42 -25 -55 3 -5 -1 -11 -7 -13 -9 -4 -9 -6 -1 -6 8 -1 8 -10 0 -36 -7 -23
-15 -34 -24 -31 -7 3 -13 1 -13 -4 0 -6 5 -10 10 -10 6 0 10 -5 10 -11 0 -6
-6 -9 -14 -6 -9 4 -13 -2 -13 -20 0 -14 7 -27 16 -30 23 -8 111 -95 111 -110
0 -17 -10 -16 -32 4 -19 17 -26 5 -7 -14 7 -7 8 -13 0 -17 -6 -4 -19 2 -31 14
-23 23 -39 27 -21 6 7 -8 8 -17 3 -20 -12 -7 -22 3 -22 22 0 14 -38 51 -54 52
-5 0 -2 -8 7 -18 25 -27 20 -39 -5 -15 -25 22 -69 40 -67 26 5 -28 -2 -42 -18
-36 -17 7 -17 6 0 -20 14 -22 15 -27 3 -27 -8 0 -20 8 -25 17 -9 16 -10 16
-11 2 0 -9 7 -20 16 -23 8 -3 12 -10 9 -16 -4 -6 -11 -8 -16 -5 -5 4 -9 1 -9
-4 0 -6 5 -11 10 -11 6 0 10 -4 10 -9 0 -6 -9 -8 -20 -6 -18 3 -19 1 -9 -17 9
-17 8 -23 -5 -30 -16 -9 -15 -13 7 -41 13 -18 32 -47 41 -64 15 -31 20 -33 69
-33 l52 0 33 55 c31 51 34 54 59 44 15 -5 44 -7 65 -4 l38 7 0 -51 c0 -58 14
-66 45 -23 14 20 15 23 3 14 -15 -12 -17 -9 -16 27 0 23 4 44 9 46 4 3 4 16
-1 29 -6 16 -5 28 3 36 9 10 9 11 0 6 -16 -9 -16 -1 -1 27 10 19 9 21 -4 9
-10 -8 -19 -9 -22 -4 -3 6 1 15 9 22 8 7 15 17 15 23 0 7 -4 7 -12 -1 -7 -7
-15 -12 -19 -12 -12 0 -20 53 -10 63 6 6 11 15 11 21 0 6 -5 5 -12 -2 -17 -17
-31 -15 -24 3 3 9 0 15 -9 15 -11 0 -12 5 -5 26 6 14 6 23 1 20 -11 -7 -21 88
-27 244 -3 95 -8 128 -19 136 -8 6 -12 14 -8 18 4 4 1 11 -7 16 -25 16 -29 11
-19 -20z m-71 -555 c0 -8 -2 -15 -4 -15 -2 0 -6 7 -10 15 -3 8 -1 15 4 15 6 0
10 -7 10 -15z m-120 -95 c0 -5 -4 -10 -9 -10 -6 0 -13 5 -16 10 -3 6 1 10 9
10 9 0 16 -4 16 -10z m-13 -46 c-9 -9 -28 6 -21 18 4 6 10 6 17 -1 6 -6 8 -13
4 -17z"/>
<path d="M6012 780 c0 -14 2 -19 5 -12 2 6 2 18 0 25 -3 6 -5 1 -5 -13z"/>
<path d="M5520 780 c0 -6 7 -10 15 -10 8 0 15 2 15 4 0 2 -7 6 -15 10 -8 3
-15 1 -15 -4z"/>
<path d="M5595 780 c-3 -6 1 -7 9 -4 18 7 21 14 7 14 -6 0 -13 -4 -16 -10z"/>
<path d="M5305 760 c-3 -5 -1 -10 4 -10 6 0 11 5 11 10 0 6 -2 10 -4 10 -3 0
-8 -4 -11 -10z"/>
<path d="M5511 736 c-8 -10 -3 -11 19 -8 35 5 37 8 10 15 -10 3 -24 -1 -29 -7z"/>
<path d="M5535 690 c3 -5 8 -10 11 -10 2 0 4 5 4 10 0 6 -5 10 -11 10 -5 0 -7
-4 -4 -10z"/>
<path d="M1526 676 c10 -8 21 -11 24 -8 3 4 9 10 14 15 5 4 -6 7 -24 7 -32 0
-33 -1 -14 -14z"/>
<path d="M1560 652 c0 -12 19 -26 26 -19 2 2 -2 10 -11 17 -9 8 -15 8 -15 2z"/>
<path d="M3518 643 c7 -3 16 -2 19 1 4 3 -2 6 -13 5 -11 0 -14 -3 -6 -6z"/>
<path d="M3457 579 c-4 -15 -1 -16 19 -7 29 13 31 27 5 25 -11 -1 -22 -9 -24
-18z"/>
<path d="M6197 433 c4 -76 7 -204 5 -285 l-3 -148 101 0 100 0 0 263 0 262
-93 23 c-50 12 -98 22 -105 22 -11 0 -12 -27 -5 -137z"/>
<path d="M3446 543 c-3 -4 -6 -13 -6 -22 0 -10 3 -12 8 -5 4 6 14 13 21 16 13
4 12 5 -1 10 -9 4 -19 4 -22 1z"/>
<path d="M5345 540 c-3 -5 -1 -10 4 -10 6 0 11 5 11 10 0 6 -2 10 -4 10 -3 0
-8 -4 -11 -10z"/>
<path d="M1537 519 c7 -7 15 -10 18 -7 3 3 -2 9 -12 12 -14 6 -15 5 -6 -5z"/>
<path d="M5455 500 c-3 -5 -1 -10 4 -10 6 0 11 5 11 10 0 6 -2 10 -4 10 -3 0
-8 -4 -11 -10z"/>
<path d="M1398 493 c7 -3 16 -2 19 1 4 3 -2 6 -13 5 -11 0 -14 -3 -6 -6z"/>
<path d="M3446 484 c-5 -14 -4 -15 9 -4 17 14 19 20 6 20 -5 0 -12 -7 -15 -16z"/>
<path d="M5260 490 c-9 -6 -10 -10 -3 -10 6 0 15 5 18 10 8 12 4 12 -15 0z"/>
<path d="M1170 426 c0 -2 7 -7 16 -10 8 -3 12 -2 9 4 -6 10 -25 14 -25 6z"/>
<path d="M1350 421 c0 -6 4 -13 10 -16 6 -3 7 1 4 9 -7 18 -14 21 -14 7z"/>
<path d="M1260 390 c0 -5 5 -10 11 -10 5 0 7 5 4 10 -3 6 -8 10 -11 10 -2 0
-4 -4 -4 -10z"/>
<path d="M1340 368 c0 -19 -37 -41 -43 -25 -3 7 -6 5 -6 -5 -1 -9 4 -18 10
-20 9 -3 9 -9 0 -25 -11 -21 1 -43 13 -24 3 5 15 7 26 4 16 -4 19 -2 13 13 -5
14 -3 16 11 11 10 -4 26 -2 37 4 23 12 16 26 -33 60 -20 14 -28 16 -28 7z m30
-29 c0 -6 -4 -7 -10 -4 -5 3 -10 11 -10 16 0 6 5 7 10 4 6 -3 10 -11 10 -16z
m20 -19 c0 -5 -5 -10 -11 -10 -5 0 -7 5 -4 10 3 6 8 10 11 10 2 0 4 -4 4 -10z"/>
<path d="M3385 330 c3 -5 11 -10 16 -10 6 0 7 5 4 10 -3 6 -11 10 -16 10 -6 0
-7 -4 -4 -10z"/>
<path d="M1740 295 c-11 -13 -10 -14 4 -9 9 3 16 10 16 15 0 13 -6 11 -20 -6z"/>
<path d="M3387 289 c7 -7 15 -10 18 -7 3 3 -2 9 -12 12 -14 6 -15 5 -6 -5z"/>
<path d="M6035 280 c-3 -5 -1 -10 4 -10 6 0 11 5 11 10 0 6 -2 10 -4 10 -3 0
-8 -4 -11 -10z"/>
<path d="M4390 270 c-9 -6 -10 -10 -3 -10 6 0 15 5 18 10 8 12 4 12 -15 0z"/>
<path d="M3350 233 c0 -15 -2 -16 -10 -3 -8 13 -11 13 -25 0 -13 -14 -12 -16
10 -15 31 2 52 19 36 29 -6 4 -11 0 -11 -11z"/>
<path d="M6020 240 c0 -6 -5 -8 -12 -4 -8 5 -9 2 -4 -11 4 -10 2 -21 -3 -25
-6 -3 -7 -17 -3 -33 5 -19 11 -24 21 -18 9 6 10 11 2 15 -17 11 -13 26 6 26
13 0 14 3 5 12 -17 17 -15 31 4 24 10 -4 14 -1 12 6 -6 16 -28 23 -28 8z"/>
<path d="M1895 190 c-7 -12 2 -12 30 0 19 8 19 9 -2 9 -12 1 -25 -3 -28 -9z"/>
<path d="M3350 187 c0 -8 7 -14 15 -14 11 0 12 4 4 14 -6 7 -13 13 -15 13 -2
0 -4 -6 -4 -13z"/>
<path d="M3305 170 c-10 -11 -13 -20 -7 -20 7 0 12 5 12 10 0 6 7 10 15 10 8
0 15 5 15 10 0 16 -15 12 -35 -10z"/>
<path d="M1900 150 c-12 -7 -10 -9 8 -7 12 0 22 5 22 9 0 11 -12 10 -30 -2z"/>
<path d="M1126 133 c-8 -21 -7 -25 4 -18 6 3 10 1 10 -4 0 -19 17 -12 23 8 6
24 -29 37 -37 14z"/>
<path d="M3320 125 c-11 -13 -10 -14 4 -9 9 3 16 10 16 15 0 13 -6 11 -20 -6z"/>
<path d="M1968 123 c7 -3 16 -2 19 1 4 3 -2 6 -13 5 -11 0 -14 -3 -6 -6z"/>
<path d="M4738 123 c7 -3 16 -2 19 1 4 3 -2 6 -13 5 -11 0 -14 -3 -6 -6z"/>
<path d="M4268 113 c7 -3 16 -2 19 1 4 3 -2 6 -13 5 -11 0 -14 -3 -6 -6z"/>
<path d="M1175 100 c3 -5 8 -10 11 -10 2 0 4 5 4 10 0 6 -5 10 -11 10 -5 0 -7
-4 -4 -10z"/>
<path d="M1908 103 c7 -3 16 -2 19 1 4 3 -2 6 -13 5 -11 0 -14 -3 -6 -6z"/>
<path d="M1953 79 c-38 -11 -53 -28 -21 -24 34 4 98 33 73 33 -11 0 -34 -4
-52 -9z"/>
<path d="M3240 76 c0 -2 6 -9 14 -15 10 -9 15 -8 20 4 4 10 -1 15 -14 15 -11
0 -20 -2 -20 -4z"/>
<path d="M1195 60 c-3 -6 1 -7 9 -4 18 7 21 14 7 14 -6 0 -13 -4 -16 -10z"/>
<path d="M1220 40 c-8 -5 -10 -10 -5 -10 6 0 17 5 25 10 8 5 11 10 5 10 -5 0
-17 -5 -25 -10z"/>
<path d="M3245 26 c-31 -9 -36 -13 -22 -19 10 -3 17 -2 17 4 0 7 10 9 23 5 17
-4 24 -1 24 9 0 8 -1 15 -1 14 -1 0 -19 -6 -41 -13z"/>
<path d="M1197 13 c6 -15 83 -18 83 -3 0 5 -7 7 -15 4 -8 -4 -15 -2 -15 2 0 5
-13 9 -29 9 -19 0 -27 -4 -24 -12z"/>
<path d="M2026 14 c-17 -12 -17 -14 -4 -14 9 0 20 5 23 11 11 17 2 18 -19 3z"/>
<path d="M1778 3 c7 -3 16 -2 19 1 4 3 -2 6 -13 5 -11 0 -14 -3 -6 -6z"/>
</g>
</svg>
